<svg xmlns="http://www.w3.org/2000/svg" viewBox="0 0 164.62 127.07"><defs><style>.cls-1{fill:#0072b1;}</style></defs><title>camera-blue</title><g id="圖層_2" data-name="圖層 2"><g id="圖層_7" data-name="圖層 7"><path class="cls-1" d="M82.31,30.24a42.29,42.29,0,1,0,42.28,42.29A42.33,42.33,0,0,0,82.31,30.24Zm0,77.84a35.55,35.55,0,1,1,35.55-35.55A35.59,35.59,0,0,1,82.31,108.08Z"/><path class="cls-1" d="M82.31,46.14a26.39,26.39,0,1,0,26.38,26.39A26.41,26.41,0,0,0,82.31,46.14Zm0,46.39a20,20,0,1,1,20-20A20,20,0,0,1,82.31,92.53Z"/><path class="cls-1" d="M154,18H110.65L106.22,5.93A9.07,9.07,0,0,0,97.73,0H66.89A9.07,9.07,0,0,0,58.4,5.93L54,18H39.25V13.26a6.92,6.92,0,0,0-6.91-6.91H22.14a6.92,6.92,0,0,0-6.91,6.91V18h-4.6A10.64,10.64,0,0,0,0,28.62v87.82a10.64,10.64,0,0,0,10.63,10.63H154a10.64,10.64,0,0,0,10.63-10.63V28.62A10.64,10.64,0,0,0,154,18Zm3.54,82.26H147V44.8h10.49ZM65.05,8.37a2,2,0,0,1,1.84-1.28H97.73a2,2,0,0,1,1.84,1.28L103.1,18H61.52ZM22,13.26a.18.18,0,0,1,.18-.18h10.2a.18.18,0,0,1,.17.18V18H22ZM7.09,44.8H17.58v55.45H7.09ZM154,120H10.63a3.55,3.55,0,0,1-3.54-3.54v-9.1h14a3.55,3.55,0,0,0,3.54-3.54V41.26a3.55,3.55,0,0,0-3.54-3.55h-14v-9.1a3.55,3.55,0,0,1,3.54-3.54H154a3.55,3.55,0,0,1,3.54,3.54v9.1h-14A3.55,3.55,0,0,0,140,41.26V103.8a3.55,3.55,0,0,0,3.54,3.54h14v9.1A3.55,3.55,0,0,1,154,120Z"/><path class="cls-1" d="M82.31,59.49a13.06,13.06,0,0,0-13,13,3.19,3.19,0,1,0,6.38,0,6.67,6.67,0,0,1,6.66-6.66,3.19,3.19,0,1,0,0-6.38Z"/></g></g></svg>