<svg xmlns="http://www.w3.org/2000/svg" viewBox="0 0 38.77 33.61"><defs><style>.cls-1{fill:#f8e0e2;}.cls-2,.cls-5{fill:#e5a8ae;}.cls-3{fill:#ff848b;}.cls-4{fill:#727171;}.cls-5{opacity:0.3;}.cls-6,.cls-7{fill:none;}.cls-7{stroke:#9fa0a0;stroke-miterlimit:10;stroke-width:2px;}.cls-8{fill:#0072b1;}.cls-9{fill:#15afe5;}</style></defs><title>chat-pig</title><g id="圖層_2" data-name="圖層 2"><g id="圖層_7" data-name="圖層 7"><path class="cls-1" d="M36,4.49h0a23.94,23.94,0,0,0-.59-4A.61.61,0,0,0,34.84,0c-2.85-.11-8,2.44-8,2.44-.64,5.37,1.92,7.35,3.9,8.09v-1S30.5,5,36,4.49Z"/><path class="cls-1" d="M1.18,0A.61.61,0,0,0,.62.47c-.46,1.9-2,9.64,2.57,10.5,0,0,7,0,6-8.53C9.21,2.44,4-.11,1.18,0Z"/><path class="cls-2" d="M36,4.49h0c-5.5.49-5.29,5.06-5.29,5.06v1a7,7,0,0,0,2.13.44C35.66,10.44,36.15,7.27,36,4.49Z"/><path class="cls-1" d="M0,4.49H0a23.94,23.94,0,0,1,.59-4A.63.63,0,0,1,1.18,0c2.85-.11,8,2.44,8,2.44.64,5.37-1.91,7.35-3.9,8.09v-1S5.53,5,0,4.49Z"/><path class="cls-2" d="M0,4.49H0C5.53,5,5.31,9.55,5.31,9.55v1A7,7,0,0,1,3.19,11C.36,10.44-.12,7.27,0,4.49Z"/><path class="cls-3" d="M18,31c-4.23,0-7.76-2.21-8.57-5.13a4.55,4.55,0,0,0-.18,1.28c0,3.55,3.92,6.42,8.75,6.42s8.75-2.87,8.75-6.42a4.94,4.94,0,0,0-.17-1.28C25.78,28.83,22.25,31,18,31Z"/><path class="cls-1" d="M18.12,1.2,18,1.31l-.1-.11C1.44,2.86,1.46,18.82,1.46,18.82c0,7.76,7.3,11.49,16.45,11.49s16.66-3.73,16.66-11.49C34.57,18.82,34.58,2.86,18.12,1.2Z"/><ellipse class="cls-1" cx="17.9" cy="5.83" rx="10.86" ry="5.83"/><ellipse class="cls-1" cx="18.01" cy="25.54" rx="9.4" ry="5.83"/><line class="cls-1" x1="4.58" y1="8.56" x2="18.01" y2="8.56"/><line class="cls-1" x1="17.9" y1="8.56" x2="31.33" y2="8.56"/><path class="cls-2" d="M22.09,15.36l-.15,0a3.59,3.59,0,0,1-1.16-.8,4,4,0,0,0-5.53,0,3.64,3.64,0,0,1-1.17.8l-.14,0a3.52,3.52,0,0,0,1.34,6.78,3.58,3.58,0,0,0,1-.15h0a6.64,6.64,0,0,1,3.39,0h0a3.47,3.47,0,0,0,1,.15,3.52,3.52,0,0,0,1.35-6.78Zm-6.81,4.35a1.09,1.09,0,1,1,1.09-1.09A1.09,1.09,0,0,1,15.28,19.71Zm5.48,0h0a1.09,1.09,0,0,1,0-2.18h0a1.09,1.09,0,0,1,0,2.18Z"/><path class="cls-2" d="M20.45,22.48a7.1,7.1,0,0,1-4.87,0,.47.47,0,0,0-.64.42C14.87,24,15.12,26,18,26s3.19-2,3.11-3.11A.49.49,0,0,0,20.45,22.48Z"/><path class="cls-4" d="M14.32,11.9a1.41,1.41,0,0,1-.87,1.75c-.64.13-1.29-.46-1.45-1.3a1.41,1.41,0,0,1,.86-1.76C13.5,10.47,14.15,11.05,14.32,11.9Z"/><path class="cls-4" d="M24.05,12.25c-.09.86-.7,1.49-1.34,1.42a1.41,1.41,0,0,1-1-1.68c.1-.85.7-1.49,1.35-1.41A1.39,1.39,0,0,1,24.05,12.25Z"/><circle class="cls-5" cx="28.34" cy="15.22" r="3.1"/><circle class="cls-5" cx="7.68" cy="15.22" r="3.1"/><path class="cls-6" d="M19.55,7.89Z"/><path class="cls-2" d="M22.29,6.6c-1.19-.72-2.31.48-2.67.93a.39.39,0,0,0-.07.36h0c0,.06.19.43,1.64,0h0l1-.26a.39.39,0,0,0,.29-.38V6.93A.37.37,0,0,0,22.29,6.6Z"/><path class="cls-6" d="M16.25,7.89Z"/><path class="cls-2" d="M13.51,6.6c1.19-.72,2.31.48,2.67.93a.39.39,0,0,1,.07.36h0c0,.06-.19.43-1.64,0h0l-1-.26a.39.39,0,0,1-.29-.38V6.93A.37.37,0,0,1,13.51,6.6Z"/><path class="cls-7" d="M33.42,17.41s.79,9.61-7.53,9.27"/><rect class="cls-8" x="31.65" y="7.09" width="3.55" height="11.01" rx="1.62" ry="1.62" transform="translate(66.84 25.19) rotate(180)"/><rect class="cls-8" x="24.11" y="24.91" width="3.55" height="3.55" rx="1.62" ry="1.62" transform="translate(51.77 53.36) rotate(-180)"/><path class="cls-9" d="M35.2,9.17a3.58,3.58,0,0,1,0,7.15"/></g></g></svg>