<svg xmlns="http://www.w3.org/2000/svg" viewBox="0 0 179.47 155.56"><defs><style>.cls-1{fill:#0072b1;}</style></defs><title>cloud-blue</title><g id="圖層_2" data-name="圖層 2"><g id="圖層_7" data-name="圖層 7"><path class="cls-1" d="M153,47.81C150.68,20.89,128.41,0,101.67,0A53.3,53.3,0,0,0,60.29,20c-.4-.18-.76-.33-1.12-.47L59,19.48c-.32-.12-.63-.24-.91-.33-.67-.24-1.33-.43-2-.62l-.32-.08c-.26-.07-.52-.14-.7-.17-.76-.19-1.53-.31-2.2-.41l-.39-.07-.57-.09c-1.24-.12-2.21-.18-3.15-.18A28.36,28.36,0,0,0,20.48,45.84,42.36,42.36,0,0,0,0,81.41,39.61,39.61,0,0,0,39.57,121H54.63a4.93,4.93,0,0,0,0-9.86H39.57A29.75,29.75,0,0,1,9.86,81.41c0-11.42,7.43-23.27,17.67-28.19l2.79-1.35V48.78c0-.21,0-.42,0-.63l.05-1-.05-1c0-.11,0-.22,0-.33A18.5,18.5,0,0,1,48.79,27.39a18.79,18.79,0,0,1,2.47.19l.57.08a19.23,19.23,0,0,1,2.14.48l.24.07a15.28,15.28,0,0,1,2.23.86l.4.19.1,0A18.44,18.44,0,0,1,67.26,45.87a4.93,4.93,0,0,0,9.85,0,28.3,28.3,0,0,0-8.62-20.33,44.16,44.16,0,0,1,33.18-15.7c20.6,0,38.26,15.85,41.17,36.49a54.64,54.64,0,0,0-10,.51,4.92,4.92,0,0,0,.74,9.79,5.06,5.06,0,0,0,.63,0h.11a52.6,52.6,0,0,1,13.08,0C160.07,59,169.61,70.7,169.61,83.79a27.35,27.35,0,0,1-27.31,27.33H130.67a4.93,4.93,0,1,0,0,9.86H142.3a37.22,37.22,0,0,0,37.17-37.19A38.09,38.09,0,0,0,153,47.81Z"/><path class="cls-1" d="M93.22,77.48a5,5,0,0,0-1.6-1.07,4.86,4.86,0,0,0-3.78,0,5.12,5.12,0,0,0-1.59,1.07L62.86,100.87a4.92,4.92,0,1,0,7,6.95l15-15v57.81a4.93,4.93,0,0,0,9.86,0V92.85l15,15a5,5,0,0,0,3.49,1.45,4.86,4.86,0,0,0,3.48-1.45,4.91,4.91,0,0,0,0-6.95Z"/></g></g></svg>