<svg xmlns="http://www.w3.org/2000/svg" viewBox="0 0 44.99 44.91"><defs><style>.cls-1{fill:#686868;}</style></defs><title>f02</title><g id="圖層_2" data-name="圖層 2"><g id="圖層_7" data-name="圖層 7"><path class="cls-1" d="M35.18,26.2h1.5a.75.75,0,0,0,0-1.5h-1.5a.75.75,0,0,0,0,1.5Z"/><path class="cls-1" d="M35.18,33.69h1.5a.75.75,0,1,0,0-1.5h-1.5a.75.75,0,0,0,0,1.5Z"/><path class="cls-1" d="M35.18,41.17h1.5a.75.75,0,0,0,0-1.5h-1.5a.75.75,0,1,0,0,1.5Z"/><path class="cls-1" d="M44.16,17.89H40.42V10.48a.71.71,0,0,0-.75-.75H37.43V7.49a.71.71,0,0,0-.75-.75h-3a.71.71,0,0,0-.74.75v.74H30.69a.71.71,0,0,0-.75.75v8.91h-9.8v-.45a1.7,1.7,0,0,0-1.73-1.72H18V15h7.48a1.5,1.5,0,0,0,1.5-1.5V1.5A1.5,1.5,0,0,0,25.45,0H6a1.5,1.5,0,0,0-1.5,1.5v12A1.5,1.5,0,0,0,6,15h7.48v.75H13a1.69,1.69,0,0,0-1.72,1.72v.45H.82a.82.82,0,0,0-.82.82v2.92a.83.83,0,0,0,.82.83H1.5v21.7a.71.71,0,0,0,.75.75h3A.71.71,0,0,0,6,44.16V22.46H28.44v21.7a.71.71,0,0,0,.75.75H42.67a.71.71,0,0,0,.75-.75V22.46h.67a1,1,0,0,0,.9-.83V18.71A.83.83,0,0,0,44.16,17.89Zm-6.73-6.66h1.49v6.66H37.43Zm-3-3h1.5v9.66h-1.5Zm-3,1.5h1.5v8.16h-1.5ZM6,1.5H25.45v9H6Zm0,12V12H25.45v1.49ZM16.47,15v.75H15V15ZM12.8,17.44a.19.19,0,0,1,.22-.22h5.47a.19.19,0,0,1,.22.22v.45H12.8Zm-8.31,26H3v-21h1.5Zm37.43,0h-12v-6h12Zm0-7.49h-12v-6h12Zm0-7.49h-12v-6h12ZM43.42,21H1.5v-1.5H43.42Z"/><path class="cls-1" d="M9.51,3.52a.74.74,0,0,0-1-1L7,4A.72.72,0,0,0,7,5a.68.68,0,0,0,.53.22A.67.67,0,0,0,8,5Z"/><path class="cls-1" d="M11.45,3.22,7.71,7a.72.72,0,0,0,0,1,.67.67,0,0,0,.52.22A.68.68,0,0,0,8.76,8L12.5,4.27a.74.74,0,0,0-1.05-1Z"/></g></g></svg>