<svg xmlns="http://www.w3.org/2000/svg" viewBox="0 0 27.65 48.8"><defs><style>.cls-1{fill:#686868;}</style></defs><title>f03</title><g id="圖層_2" data-name="圖層 2"><g id="圖層_7" data-name="圖層 7"><path class="cls-1" d="M25.21,11.39A2.44,2.44,0,0,0,27.65,9V2.44A2.44,2.44,0,0,0,25.21,0H2.44A2.44,2.44,0,0,0,0,2.44V9a2.44,2.44,0,0,0,2.44,2.44h.81v12.2H2.44A2.44,2.44,0,0,0,0,26v.81a2.42,2.42,0,0,0,1.63,2.29V46.36a2.44,2.44,0,0,0,4.88,0V43.11H20.33v3.25a2.44,2.44,0,0,0,4.88,0V29.28a2.44,2.44,0,0,0,2.44-2.44V26a2.44,2.44,0,0,0-2.44-2.44H24.4V11.39Zm-20.33,35a.81.81,0,0,1-.81.81.82.82,0,0,1-.82-.81V29.28H4.88Zm15.45-4.88H6.51V39.85H20.33Zm0-3.25H6.51V29.28H20.33Zm3.26,8.13a.82.82,0,0,1-.82.81.81.81,0,0,1-.81-.81V29.28h1.63Zm1.62-21.15A.82.82,0,0,1,26,26v.81a.82.82,0,0,1-.82.81H2.44a.81.81,0,0,1-.81-.81V26a.82.82,0,0,1,.81-.82ZM4.88,23.59V11.39H6.51v12.2Zm3.25,0V11.39h3.26v12.2Zm4.88,0V11.39h1.63v12.2Zm3.26,0V11.39h3.25v12.2Zm4.88,0V11.39h1.62v12.2ZM2.44,9.76A.81.81,0,0,1,1.63,9V2.44a.81.81,0,0,1,.81-.81H25.21a.82.82,0,0,1,.82.81V9a.82.82,0,0,1-.82.81Z"/></g></g></svg>