<svg xmlns="http://www.w3.org/2000/svg" viewBox="0 0 36.75 49"><defs><style>.cls-1{fill:#686868;}</style></defs><title>f04</title><g id="圖層_2" data-name="圖層 2"><g id="圖層_7" data-name="圖層 7"><path class="cls-1" d="M32.67,0H4.08A4.08,4.08,0,0,0,0,4.08V40.83a4.09,4.09,0,0,0,4.08,4.09V48a1,1,0,0,0,1,1H9.19a1,1,0,0,0,1-1V44.92H26.54V48a1,1,0,0,0,1,1h4.09a1,1,0,0,0,1-1V44.92a4.09,4.09,0,0,0,4.08-4.09V4.08A4.08,4.08,0,0,0,32.67,0ZM8.17,47h-2v-2H8.17Zm9.18-4.09H4.08a2,2,0,0,1-2-2V4.08a2,2,0,0,1,2-2H17.35ZM30.62,47h-2v-2h2Zm4.09-6.13a2,2,0,0,1-2,2H19.4V2H32.67a2,2,0,0,1,2,2Z"/><path class="cls-1" d="M21.44,22.46a1,1,0,0,0-1,1v2a1,1,0,0,0,2,0v-2A1,1,0,0,0,21.44,22.46Z"/><path class="cls-1" d="M15.31,26.54a1,1,0,0,0,1-1v-2a1,1,0,1,0-2,0v2A1,1,0,0,0,15.31,26.54Z"/></g></g></svg>