<svg xmlns="http://www.w3.org/2000/svg" viewBox="0 0 48.59 49"><defs><style>.cls-1{fill:#686868;}</style></defs><title>f05</title><g id="圖層_2" data-name="圖層 2"><g id="圖層_7" data-name="圖層 7"><path class="cls-1" d="M45.71,8H30.42a6.24,6.24,0,0,0-.75-2.12l12.77-4A1,1,0,0,0,41.86,0L28.36,4.28a6.15,6.15,0,0,0-8.12,0L6.73,0a1,1,0,0,0-1.2.63,1,1,0,0,0,.63,1.2l12.76,4A6.24,6.24,0,0,0,18.17,8H2.88A2.89,2.89,0,0,0,0,10.88V43.31a2.88,2.88,0,0,0,2.88,2.88h.47V48a1,1,0,1,0,1.91,0V46.19H43.33V48a1,1,0,0,0,1.92,0V46.19h.46a2.88,2.88,0,0,0,2.88-2.88V10.88A2.89,2.89,0,0,0,45.71,8ZM24.3,4.67A4.29,4.29,0,0,1,28.47,8H20.13A4.28,4.28,0,0,1,24.3,4.67ZM46.68,43.31a1,1,0,0,1-1,1H2.88a1,1,0,0,1-1-1V10.88a1,1,0,0,1,1-1H45.71a1,1,0,0,1,1,1Z"/><path class="cls-1" d="M44.12,13.25a1,1,0,0,0-.86-.8,226.49,226.49,0,0,0-37.92,0,1,1,0,0,0-.87.8A79.27,79.27,0,0,0,4.47,40a1,1,0,0,0,.87.79q9.44.8,19,.8c6.33,0,12.67-.27,19-.8a1,1,0,0,0,.86-.79A79.27,79.27,0,0,0,44.12,13.25ZM42.35,39A226.74,226.74,0,0,1,6.24,39a77.46,77.46,0,0,1,0-24.69,224.41,224.41,0,0,1,36.11,0A76.89,76.89,0,0,1,42.35,39Z"/><path class="cls-1" d="M40.82,21.55a1,1,0,0,0-.91,1,74.46,74.46,0,0,1-.13,10.13,1,1,0,0,0,.87,1h.08a1,1,0,0,0,1-.88,76.65,76.65,0,0,0,.14-10.39A1,1,0,0,0,40.82,21.55Z"/><path class="cls-1" d="M40.63,20.39h.1a1,1,0,0,0,.86-1.05c-.1-1-.21-2-.35-3a1,1,0,1,0-1.89.26c.13,1,.24,1.93.33,2.89A1,1,0,0,0,40.63,20.39Z"/><path class="cls-1" d="M45.48,41.62A1,1,0,0,0,44,42.7a1,1,0,0,0,1.81,0A1,1,0,0,0,45.48,41.62Z"/></g></g></svg>