<svg xmlns="http://www.w3.org/2000/svg" viewBox="0 0 51 36.35"><defs><style>.cls-1{fill:#686868;}</style></defs><title>f06</title><g id="圖層_2" data-name="圖層 2"><g id="圖層_7" data-name="圖層 7"><path class="cls-1" d="M50.73,10.43a35.73,35.73,0,0,0-50.46,0,.94.94,0,0,0,0,1.32.94.94,0,0,0,1.32,0,33.86,33.86,0,0,1,47.83,0,.91.91,0,0,0,.65.27.93.93,0,0,0,.66-.27A.94.94,0,0,0,50.73,10.43Z"/><path class="cls-1" d="M5.73,15.89a.94.94,0,0,0,0,1.32.93.93,0,0,0,.66.27A.91.91,0,0,0,7,17.21a26.13,26.13,0,0,1,36.92,0,.93.93,0,0,0,1.31,0,.94.94,0,0,0,0-1.32A28,28,0,0,0,5.73,15.89Z"/><path class="cls-1" d="M25.5,15.43a20.14,20.14,0,0,0-14.31,5.92.94.94,0,0,0,0,1.32.93.93,0,0,0,1.31,0,18.4,18.4,0,0,1,26,0,.91.91,0,0,0,.65.27.93.93,0,0,0,.66-.27.94.94,0,0,0,0-1.32A20.14,20.14,0,0,0,25.5,15.43Z"/><path class="cls-1" d="M25.5,24.17a6.09,6.09,0,1,0,6.08,6.09A6.09,6.09,0,0,0,25.5,24.17Zm0,10.32a4.23,4.23,0,1,1,4.23-4.23A4.23,4.23,0,0,1,25.5,34.49Z"/></g></g></svg>