<svg xmlns="http://www.w3.org/2000/svg" viewBox="0 0 48.01 49"><defs><style>.cls-1{fill:#686868;}</style></defs><title>f07</title><g id="圖層_2" data-name="圖層 2"><g id="圖層_7" data-name="圖層 7"><path class="cls-1" d="M12.25,20.49a5.35,5.35,0,0,0-5.31,6.05,1,1,0,1,0,1.89-.25,3.45,3.45,0,1,1,2.91,3,1,1,0,0,0-1.09.81.94.94,0,0,0,.8,1.08,5.25,5.25,0,0,0,.79.06A5.39,5.39,0,0,0,16,29.63a5.36,5.36,0,0,0-3.79-9.14Z"/><path class="cls-1" d="M9.8,28.27a1,1,0,0,0-1.35,0,1,1,0,0,0,0,1.36h0a1,1,0,0,0,.68.27,1,1,0,0,0,.67-1.63Z"/><path class="cls-1" d="M12.25,15.7A3.26,3.26,0,1,0,9,12.44,3.26,3.26,0,0,0,12.25,15.7Zm0-4.6a1.34,1.34,0,1,1-1.34,1.34A1.35,1.35,0,0,1,12.25,11.1Z"/><path class="cls-1" d="M12.25,8.42A2.3,2.3,0,1,0,10,6.12,2.3,2.3,0,0,0,12.25,8.42Zm0-2.68a.39.39,0,1,1-.38.38A.38.38,0,0,1,12.25,5.74Z"/><path class="cls-1" d="M27.75,22.92a1,1,0,0,0,1-1V11.53a1,1,0,1,0-1.91,0V22A1,1,0,0,0,27.75,22.92Z"/><path class="cls-1" d="M28.43,26.28a1,1,0,0,0,.28-.68.93.93,0,0,0-.28-.67,1,1,0,1,0,0,1.35Z"/><path class="cls-1" d="M47.05,18.59h-.47a1,1,0,0,0,0,1.92h.47a1,1,0,0,0,0-1.92Z"/><path class="cls-1" d="M47.05,15.09h-.47a1,1,0,1,0,0,1.91h.47a1,1,0,1,0,0-1.91Z"/><path class="cls-1" d="M46.58,13.49h.47a1,1,0,1,0,0-1.91h-.47a1,1,0,1,0,0,1.91Z"/><path class="cls-1" d="M43.23,17h.47a1,1,0,1,0,0-1.91h-.51v-1.6h.51a1,1,0,1,0,0-1.91h-.51V10a1.74,1.74,0,0,0-.58-1.3,1.77,1.77,0,0,0-1.37-.42A7.81,7.81,0,0,0,34.45,16V29.86a2.68,2.68,0,0,0,1.88,2.56V42a5.1,5.1,0,0,1-5.09,5.09H28.83A5.1,5.1,0,0,1,23.74,42V37.13h3.44a5.74,5.74,0,0,0,5.74-5.74V5.74A5.75,5.75,0,0,0,27.18,0H5.74A5.75,5.75,0,0,0,0,5.74V31.39a5.75,5.75,0,0,0,5.74,5.74H21.83V42a7,7,0,0,0,7,7h2.41a7,7,0,0,0,7-7V32.3a2.68,2.68,0,0,0,1.57-2.44V23.44a7.6,7.6,0,0,0,1.43.32l.22,0a1.72,1.72,0,0,0,1.73-1.73V20.51h.51a1,1,0,0,0,0-1.92h-.51V17ZM7.08,1.91H17.42V15.17A1.87,1.87,0,0,1,15.55,17H9a1.87,1.87,0,0,1-1.87-1.86ZM5.74,35.22a3.84,3.84,0,0,1-3.83-3.83V5.74A3.84,3.84,0,0,1,5.17,2V15.17A3.78,3.78,0,0,0,9,19h6.6a3.78,3.78,0,0,0,3.78-3.78V1.91h7.85A3.84,3.84,0,0,1,31,5.74V31.39a3.84,3.84,0,0,1-3.83,3.83Zm32.15-5.36a.76.76,0,1,1-1.52,0V21.15a7.82,7.82,0,0,0,1.52,1.35Zm3.39-8a5.87,5.87,0,0,1,0-11.59Z"/></g></g></svg>