<svg xmlns="http://www.w3.org/2000/svg" viewBox="0 0 52 26.41"><defs><style>.cls-1{fill:#686868;}</style></defs><title>fa01</title><g id="圖層_2" data-name="圖層 2"><g id="圖層_7" data-name="圖層 7"><path class="cls-1" d="M49,0H3.05A3.06,3.06,0,0,0,0,3.05V23.36a3.06,3.06,0,0,0,3.05,3.05H49a3.06,3.06,0,0,0,3-3.05V3.05a3.06,3.06,0,0,0-3-3ZM6.09,2H45.91v1a1,1,0,0,1-1,1H7.11a1,1,0,0,1-1-1ZM45.91,24.37H6.09v-2H45.91Zm0-4.06H6.09a4.07,4.07,0,0,1,4.07-4.06H41.84a4.07,4.07,0,0,1,4.07,4.06ZM50,23.36a1,1,0,0,1-1,1h-1V20.31a6.1,6.1,0,0,0-6.1-6.09H10.16a6.1,6.1,0,0,0-6.1,6.09v1h0v3h-1a1,1,0,0,1-1-1V3.05a1,1,0,0,1,1-1h1v1a3,3,0,0,0,3.05,3H44.89a3,3,0,0,0,3-3V2h1a1,1,0,0,1,1,1Z"/><path class="cls-1" d="M16,8.12H16a1,1,0,1,0,0,2H16a1,1,0,0,0,0-2Z"/><path class="cls-1" d="M13,8.12H7.11a1,1,0,0,0,0,2H13a1,1,0,0,0,0-2Z"/></g></g></svg>