<svg xmlns="http://www.w3.org/2000/svg" viewBox="0 0 29.36 49.7"><defs><style>.cls-1{fill:#686868;}</style></defs><title>fa02</title><g id="圖層_2" data-name="圖層 2"><g id="圖層_7" data-name="圖層 7"><path class="cls-1" d="M26,0H3.4A3.4,3.4,0,0,0,0,3.4V43.91a3.4,3.4,0,0,0,3.4,3.4h.26v1.42a1,1,0,0,0,2,0V47.31H23.82v1.42a1,1,0,0,0,2,0V47.31H26a3.4,3.4,0,0,0,3.39-3.4V3.4A3.4,3.4,0,0,0,26,0Zm1.39,43.91A1.4,1.4,0,0,1,26,45.31H3.4A1.4,1.4,0,0,1,2,43.91V19.52H27.36Zm0-26.39H2V3.4A1.4,1.4,0,0,1,3.4,2H26a1.4,1.4,0,0,1,1.39,1.4Z"/><path class="cls-1" d="M6.64,28.64V23.21a1,1,0,0,0-2,0v5.43A1,1,0,0,0,6.64,28.64Z"/><path class="cls-1" d="M4.64,8.93v5.43a1,1,0,0,0,2,0V8.93A1,1,0,0,0,4.64,8.93Z"/></g></g></svg>