<svg xmlns="http://www.w3.org/2000/svg" viewBox="0 0 39.2 49"><defs><style>.cls-1{fill:#686868;}</style></defs><title>fa03</title><g id="圖層_2" data-name="圖層 2"><g id="圖層_7" data-name="圖層 7"><path class="cls-1" d="M36.75,0H2.45A2.45,2.45,0,0,0,0,2.45v44.1A2.45,2.45,0,0,0,2.45,49h34.3a2.45,2.45,0,0,0,2.45-2.45V2.45A2.45,2.45,0,0,0,36.75,0ZM1.63,13.07H37.57v29.4H1.63Zm0-10.62a.82.82,0,0,1,.82-.82h34.3a.82.82,0,0,1,.82.82v9H1.63Zm35.94,44.1a.82.82,0,0,1-.82.82H2.45a.82.82,0,0,1-.82-.82V44.1H37.57Z"/><path class="cls-1" d="M15.52,4.08H13.07a.82.82,0,0,0,0,1.64h2.45a.82.82,0,0,0,0-1.64Z"/><path class="cls-1" d="M15.52,7.35H13.07a.82.82,0,0,0-.82.82.82.82,0,0,0,.82.81h2.45a.81.81,0,0,0,.81-.81A.82.82,0,0,0,15.52,7.35Z"/><path class="cls-1" d="M19.6,14.7A13.07,13.07,0,1,0,32.67,27.77,13.08,13.08,0,0,0,19.6,14.7Zm0,24.5A11.44,11.44,0,1,1,31,27.77,11.45,11.45,0,0,1,19.6,39.2Z"/><path class="cls-1" d="M29.3,29.18c0-.11,0-.23,0-.35a.57.57,0,0,0,0-.13c0-.13,0-.27,0-.41v-.06c0-.16,0-.31,0-.46s0-.31,0-.46v-.07c0-.14,0-.27,0-.41a.49.49,0,0,0,0-.12c0-.12,0-.24,0-.36a1.42,1.42,0,0,0,0-.2.77.77,0,0,0,0-.15,9.81,9.81,0,1,0,0,3.53.77.77,0,0,0,0-.15A1.18,1.18,0,0,0,29.3,29.18Zm-1.54-1c0,.07,0,.13,0,.19s0,.13,0,.2l0,.27s0,.06,0,.1a7.74,7.74,0,0,1-.48,1.8,3.26,3.26,0,0,1,0-5.91,7.74,7.74,0,0,1,.48,1.8s0,.07,0,.1l0,.27c0,.07,0,.14,0,.2s0,.13,0,.19,0,.26,0,.4S27.76,28,27.76,28.16ZM19.6,35.93a8.17,8.17,0,1,1,6.87-12.58,4.89,4.89,0,0,0,0,8.83A8.19,8.19,0,0,1,19.6,35.93Z"/><path class="cls-1" d="M19.6,21.23a6.54,6.54,0,0,0-6.53,6.54.81.81,0,0,0,.81.81.82.82,0,0,0,.82-.81,4.9,4.9,0,0,1,4.9-4.9.82.82,0,0,0,0-1.64Z"/><path class="cls-1" d="M28.58,4.08H27a.82.82,0,0,0,0,1.64h1.63a.82.82,0,1,0,0-1.64Z"/><path class="cls-1" d="M28.58,7.35H27a.82.82,0,0,0-.82.82A.82.82,0,0,0,27,9h1.63a.82.82,0,0,0,.82-.81A.82.82,0,0,0,28.58,7.35Z"/><path class="cls-1" d="M34.3,7.35H32.67a.82.82,0,0,0-.82.82.82.82,0,0,0,.82.81H34.3a.82.82,0,0,0,.82-.81A.82.82,0,0,0,34.3,7.35Z"/><path class="cls-1" d="M34.3,4.08H32.67a.82.82,0,0,0,0,1.64H34.3a.82.82,0,1,0,0-1.64Z"/><path class="cls-1" d="M7.35,3.27a3.27,3.27,0,1,0,3.27,3.26A3.27,3.27,0,0,0,7.35,3.27Zm0,4.9A1.64,1.64,0,1,1,9,6.53,1.64,1.64,0,0,1,7.35,8.17Z"/><path class="cls-1" d="M21.23,3.27A3.27,3.27,0,1,0,24.5,6.53,3.26,3.26,0,0,0,21.23,3.27Zm0,4.9a1.64,1.64,0,1,1,1.64-1.64A1.64,1.64,0,0,1,21.23,8.17Z"/></g></g></svg>