<svg xmlns="http://www.w3.org/2000/svg" viewBox="0 0 23.68 47.35"><defs><style>.cls-1{fill:#686868;}</style></defs><title>fa04</title><g id="圖層_2" data-name="圖層 2"><g id="圖層_7" data-name="圖層 7"><path class="cls-1" d="M21,0H2.63A2.64,2.64,0,0,0,0,2.64V44.71a2.64,2.64,0,0,0,2.63,2.64H21a2.64,2.64,0,0,0,2.64-2.63V2.64A2.64,2.64,0,0,0,21,0Zm.88,44.72a.88.88,0,0,1-.88.88H2.63a.89.89,0,0,1-.88-.88V2.64a.89.89,0,0,1,.88-.89H21a.88.88,0,0,1,.88.89Z"/><path class="cls-1" d="M19.29,11.84a3.07,3.07,0,0,0-3.06-3.07H14.91V7.45a3.07,3.07,0,1,0-6.14,0V8.77H7.45a3.07,3.07,0,0,0,0,6.14H8.77v1.32a3.07,3.07,0,0,0,6.14,0V14.91h1.32A3.07,3.07,0,0,0,19.29,11.84Zm-6.14,1.31v3.08a1.32,1.32,0,0,1-2.63,0V13.15H7.45a1.32,1.32,0,0,1,0-2.63h3.07V7.45a1.32,1.32,0,0,1,2.63,0v3.07h3.08a1.32,1.32,0,0,1,0,2.63Z"/><path class="cls-1" d="M11.84,23.68A2.19,2.19,0,1,0,14,25.87,2.19,2.19,0,0,0,11.84,23.68Zm0,2.63a.44.44,0,1,1,.44-.44A.44.44,0,0,1,11.84,26.31Z"/><path class="cls-1" d="M5.7,23.68a2.19,2.19,0,1,0,2.19,2.19A2.19,2.19,0,0,0,5.7,23.68Zm0,2.63a.44.44,0,1,1,.44-.44A.44.44,0,0,1,5.7,26.31Z"/><path class="cls-1" d="M18,23.68a2.19,2.19,0,1,0,2.19,2.19A2.2,2.2,0,0,0,18,23.68Zm0,2.63a.44.44,0,1,1,.43-.44A.44.44,0,0,1,18,26.31Z"/><path class="cls-1" d="M11.84,29.81A2.2,2.2,0,1,0,14,32,2.2,2.2,0,0,0,11.84,29.81Zm0,2.63a.44.44,0,1,1,.44-.43A.44.44,0,0,1,11.84,32.44Z"/><path class="cls-1" d="M5.7,29.81A2.2,2.2,0,1,0,7.89,32,2.2,2.2,0,0,0,5.7,29.81Zm0,2.63A.44.44,0,1,1,6.14,32,.44.44,0,0,1,5.7,32.44Z"/><path class="cls-1" d="M18,29.81A2.2,2.2,0,1,0,20.17,32,2.21,2.21,0,0,0,18,29.81Zm0,2.63a.44.44,0,1,1,.43-.43A.43.43,0,0,1,18,32.44Z"/><path class="cls-1" d="M11.84,36A2.2,2.2,0,1,0,14,38.14,2.2,2.2,0,0,0,11.84,36Zm0,2.63a.44.44,0,1,1,.44-.44A.44.44,0,0,1,11.84,38.58Z"/><path class="cls-1" d="M5.7,36a2.2,2.2,0,1,0,2.19,2.19A2.2,2.2,0,0,0,5.7,36Zm0,2.63a.44.44,0,1,1,.44-.44A.44.44,0,0,1,5.7,38.58Z"/><path class="cls-1" d="M18,36a2.2,2.2,0,1,0,2.19,2.19A2.2,2.2,0,0,0,18,36Zm0,2.63a.44.44,0,1,1,0-.87.44.44,0,0,1,0,.87Z"/></g></g></svg>