<svg xmlns="http://www.w3.org/2000/svg" viewBox="0 0 32.67 49"><defs><style>.cls-1{fill:#686868;}</style></defs><title>fa05</title><g id="圖層_2" data-name="圖層 2"><g id="圖層_7" data-name="圖層 7"><path class="cls-1" d="M24.5,9.15V4.08A4.08,4.08,0,0,0,20.42,0H12.25A4.08,4.08,0,0,0,8.17,4.08V9.15A13.14,13.14,0,0,0,0,21.3V34.23a13,13,0,0,0,3.27,8.63v2.87c0,.81,0,3.27,13.06,3.27S29.4,46.54,29.4,45.73V42.86a13.09,13.09,0,0,0,3.27-8.63V21.3A13.16,13.16,0,0,0,24.5,9.15ZM9.8,4.08a2.45,2.45,0,0,1,2.45-2.45h8.17a2.45,2.45,0,0,1,2.45,2.45V8.61l-.21,0c-.24-.06-.48-.12-.73-.16s-.59-.1-.88-.14l-.37,0a9.77,9.77,0,0,0-1.08-.06V5.72h.82V4.08H12.25V5.72h.82V8.17A9.64,9.64,0,0,0,12,8.23l-.37,0c-.3,0-.59.08-.88.14s-.49.1-.73.16l-.21,0ZM18,5.72V8.17H14.7V5.72Zm-16.34,18H11.82l0,.08c-.14.28-.28.55-.43.79l-.08.13c-.14.22-.27.43-.41.63l-.06.09-.46.61-.1.13c-.14.18-.29.36-.43.52l-.47.6-.17.21L9,27.72l-.11.15-.15.25-.1.17-.12.26a1.3,1.3,0,0,0-.08.17c0,.09-.07.19-.1.28l-.06.18a2.5,2.5,0,0,0,0,.29,1.55,1.55,0,0,0,0,.21,1.46,1.46,0,0,0,0,.3c0,.08,0,.15,0,.24H1.63Zm19.59,5.55c-.66-3.06-4.3-5.33-4.46-5.43a.86.86,0,0,0-.7-.07.83.83,0,0,0-.5.5A18.64,18.64,0,0,1,14,27.35a7.9,7.9,0,0,1-1.37,1.72,4.06,4.06,0,0,0-1.16,1.72,4.23,4.23,0,0,0,0,2.44,5.28,5.28,0,0,1-1.62-2.41,2.62,2.62,0,0,1-.08-.61c0-.88.44-1.47,1.29-2.51a15,15,0,0,0,2.74-4.55,37.41,37.41,0,0,0,1.37-4.39c2.18,2.1,4.28,4.18,4.52,4.53,1.43,2.37,2.43,4,2.41,6a4.92,4.92,0,0,1-.07.84,6.33,6.33,0,0,1-.8,2.17A8,8,0,0,0,21.22,29.23ZM13,31.28a2.54,2.54,0,0,1,.76-1.06,9.63,9.63,0,0,0,1.61-2,25.49,25.49,0,0,0,1.3-2.44c1.08.84,2.59,2.29,2.92,3.82a7.49,7.49,0,0,1-1.26,5.55H14.3C13.16,33.54,12.72,32.25,13,31.28Zm3.3,16.09c-10.5,0-11.42-1.64-11.43-1.64V44.4c1.36.6,3.87,1.13,8.45,1.28h0l.89,0h4.16c5.17-.12,7.91-.67,9.36-1.31v1.31S26.85,47.37,16.33,47.37ZM31,34.23a11.4,11.4,0,0,1-2.79,7.49.79.79,0,0,0-.25.19l0,0a.65.65,0,0,0-.13.23l0,0a10.19,10.19,0,0,1-.75.73c-.17.07-.38.15-.63.23l-.07,0-.17,0-.22.06-.08,0a27.12,27.12,0,0,1-5.1.68h0c-.6,0-1.26.07-2,.09h-.19l-.86,0H14.92l-.86,0h-.19c-.71,0-1.37,0-2-.09h0a28.54,28.54,0,0,1-5.11-.67l-.07,0-.23-.06-.16,0-.07,0c-.26-.08-.46-.16-.63-.23s-.5-.46-.76-.72c0,0,0,0,0,0A.75.75,0,0,0,4.75,42l-.08-.12s-.1-.07-.15-.11l-.09-.06a11.45,11.45,0,0,1-2.8-7.5V31.85H8.5c.66,1.64,2.3,3.22,5,4.79a.84.84,0,0,0,.41.11h4.9a.81.81,0,0,0,.45-.13,10.35,10.35,0,0,0,4-4.77H31Zm0-4H23.69a5.63,5.63,0,0,0,.07-.9v-.16a6.81,6.81,0,0,0-.05-.78c0-.1,0-.2-.05-.31s-.07-.4-.12-.6a2,2,0,0,0-.09-.33c-.05-.2-.12-.39-.19-.59l-.11-.3c-.09-.22-.18-.44-.29-.66a2.14,2.14,0,0,0-.1-.22c-.14-.3-.3-.6-.46-.9l-.07-.13-.38-.66H31Zm0-8.17H20.8c-1-1.17-4.12-4.14-5.54-5.49a.82.82,0,0,0-1.37.46,30.48,30.48,0,0,1-1.39,5H1.63V21.3A11.51,11.51,0,0,1,9.28,10.48c.29-.11.58-.19.87-.27l.16-.05.78-.17.4-.06.59-.08c.34,0,.7,0,1.05,0h6.4c.36,0,.71,0,1.06,0l.58.08.41.06.77.17.17.05c.29.08.58.16.87.27A11.51,11.51,0,0,1,31,21.3Z"/></g></g></svg>