<svg xmlns="http://www.w3.org/2000/svg" viewBox="0 0 49.36 46.71"><defs><style>.cls-1{fill:#686868;}</style></defs><title>fa06</title><g id="圖層_2" data-name="圖層 2"><g id="圖層_7" data-name="圖層 7"><path class="cls-1" d="M30.85,32.61H29.09a.88.88,0,1,0,0,1.76h1.76a.88.88,0,1,0,0-1.76Z"/><path class="cls-1" d="M43.63,16.75a3.17,3.17,0,0,0-.44,0V6.17A6.18,6.18,0,0,0,37,0H12.34A6.18,6.18,0,0,0,6.17,6.17v10.6a3.24,3.24,0,0,0-.44,0A5.73,5.73,0,0,0,2.64,27.3V38.93s0,.08,0,.11a4.42,4.42,0,0,0,4.4,4.15v.88a2.65,2.65,0,0,0,5.29,0v-.88H37v.88a2.65,2.65,0,0,0,5.29,0v-.88A4.42,4.42,0,0,0,46.71,39V27.3a5.72,5.72,0,0,0-3.08-10.55ZM7.93,6.17a4.42,4.42,0,0,1,4.41-4.41H37a4.42,4.42,0,0,1,4.41,4.41v11a5.74,5.74,0,0,0-3.53,5.29v4a4.41,4.41,0,0,0-2.64-.88H14.1a4.41,4.41,0,0,0-2.64.88v-4a5.74,5.74,0,0,0-3.53-5.29Zm2.65,37.9a.89.89,0,0,1-1.77,0v-.88h1.77Zm30,0a.88.88,0,1,1-1.76,0v-.88h1.76ZM45.43,26a.88.88,0,0,0-.48.78v12a2.65,2.65,0,0,1-2.64,2.65H7.05a2.65,2.65,0,0,1-2.64-2.65v-12A.88.88,0,0,0,3.93,26,4,4,0,1,1,9.7,22.48V30a4.4,4.4,0,0,0,4.4,4.4H25.56a.88.88,0,1,0,0-1.76H14.1a2.65,2.65,0,0,1,0-5.29H35.26a2.65,2.65,0,0,1,0,5.29h-.88a.88.88,0,1,0,0,1.76h.88a4.4,4.4,0,0,0,4.4-4.4V22.48A4,4,0,1,1,45.43,26Z"/></g></g></svg>