<svg xmlns="http://www.w3.org/2000/svg" viewBox="0 0 54.96 45.98"><defs><style>.cls-1{fill:#686868;}</style></defs><title>fa07</title><g id="圖層_2" data-name="圖層 2"><g id="圖層_7" data-name="圖層 7"><path class="cls-1" d="M53.86,39.52H48V19.16h2.73V32.73a1.1,1.1,0,1,0,2.19,0V19.16h.93a1.1,1.1,0,1,0,0-2.19H43.14V1.09A1.09,1.09,0,0,0,42,0H12.92a1.09,1.09,0,0,0-1.1,1.09V17H1.09a1.1,1.1,0,0,0,0,2.19H2V39.52H1.09A1.09,1.09,0,0,0,0,40.62v4.27A1.09,1.09,0,0,0,1.09,46H53.86A1.09,1.09,0,0,0,55,44.89V40.62A1.1,1.1,0,0,0,53.86,39.52ZM43.14,19.16h2.68V39.52H43.14ZM14,2.19H41V17H38.31V6.13A1.09,1.09,0,0,0,37.22,5H17.74a1.09,1.09,0,0,0-1.09,1.09V17H14ZM41,19.16V39.52H38.31V19.16ZM28.52,17V7.23h7.6V17Zm7.6,2.19V39.52H33.45V19.16Zm-4.86,0V39.52H28.52V19.16ZM18.84,17V7.23h7.49V17Zm7.49,2.19V39.52H23.7V19.16Zm-4.82,0V39.52H18.84V19.16Zm-7.5,0h2.64V39.52H14Zm-5,0h2.79V39.52H9Zm-4.81,0H6.84V39.52H4.22ZM52.77,43.79H2.19V41.71H52.77Z"/></g></g></svg>