<svg xmlns="http://www.w3.org/2000/svg" viewBox="0 0 63.51 53.59"><defs><style>.cls-1{fill:#686868;}</style></defs><title>fa08</title><g id="圖層_2" data-name="圖層 2"><g id="圖層_7" data-name="圖層 7"><path class="cls-1" d="M51.23,16.84V13.26H53c2,0,3.62-1,3.62-3.5v-.1c0-2.53-1.54-3.47-3.5-3.47H50a.68.68,0,0,0-.75.62h0v10c0,.41.49.63,1,.63S51.23,17.25,51.23,16.84Zm0-8.89H53c1,0,1.62.57,1.62,1.78v.18c0,1.2-.62,1.77-1.62,1.77H51.23Z"/><path class="cls-1" d="M44.52,34.1c-.39-.21-.78-.45-1.15-.7l-6-4a10.91,10.91,0,0,0-6.13-1.88h-11a10.89,10.89,0,0,0-7.73,3.2A15,15,0,0,1,9,33.31a2.32,2.32,0,0,0-1.27,2.08A2.36,2.36,0,0,0,10,37.75h3.75a.91.91,0,0,0,0-1.81H10a.55.55,0,0,1-.25-1,16.51,16.51,0,0,0,4-2.95,9.06,9.06,0,0,1,6.45-2.67h2.46v6.65h-3a.91.91,0,0,0,0,1.81H44.54a1.36,1.36,0,0,0,1.35-1.35A2.65,2.65,0,0,0,44.52,34.1Zm-20,1.84V29.29h6.71a9,9,0,0,1,5.11,1.57l6,4c.41.28.85.55,1.29.79a.84.84,0,0,1,.28.25Z"/><path class="cls-1" d="M26.79,39.12H24a.91.91,0,0,0,0,1.81h2.8a.91.91,0,0,0,0-1.81Z"/><path class="cls-1" d="M62.73,38.36l-.29-.47a7.42,7.42,0,0,0-4.91-3.45L55.19,34V22.13h6a2.26,2.26,0,0,0,2.26-2.25V2.26A2.26,2.26,0,0,0,61.23,0H43.61a2.26,2.26,0,0,0-2.25,2.26V8.94a.91.91,0,1,0,1.81,0V2.26a.45.45,0,0,1,.44-.45H61.23a.45.45,0,0,1,.45.45V19.88a.45.45,0,0,1-.45.44H43.61a.44.44,0,0,1-.44-.44V14.82a.91.91,0,0,0-1.81,0v5.06a2.25,2.25,0,0,0,2.25,2.25h6.86V33l-1.2-.24a12.55,12.55,0,0,1-4.35-2.05l-6-4a13.66,13.66,0,0,0-7.68-2.35h-11a13.64,13.64,0,0,0-9.69,4,11.91,11.91,0,0,1-6,3.22l-1.3.27A4.2,4.2,0,0,0,0,35.94V44.7a2.65,2.65,0,0,0,1.57,2.42l3.61,1.6a5.9,5.9,0,0,0,1.64,3.11,6,6,0,0,0,10-2.61H46.89a5.87,5.87,0,0,0,1.53,2.61,6,6,0,0,0,10-2.61h1.71a3.37,3.37,0,0,0,3.36-3.36V41.17A5.46,5.46,0,0,0,62.73,38.36ZM52.28,22.13h1.1V33.61l-1.1-.22ZM14,50.55a4.19,4.19,0,0,1-5.93,0,4.2,4.2,0,0,1-.85-4.7l0,0s0-.09.07-.14l0-.06a.75.75,0,0,1,.07-.12l0-.08.07-.1.06-.09.06-.09L7.74,45,7.8,45l.09-.11L8,44.79l.14-.15v0l0,0,.13-.12,0,0,.13-.11h0a4.21,4.21,0,0,1,5.28,0h0l.14.12,0,0,.15.14.16.17.07.08.07.09.09.11,0,.06.1.14,0,0A4.2,4.2,0,0,1,14,50.55Zm41.6,0a4.2,4.2,0,0,1-6.48-5.26l0,0,.09-.14.05-.06a.76.76,0,0,0,.08-.11l.08-.09.07-.08.16-.17a4.21,4.21,0,0,1,5.93,0l.15.17.07.08.08.09.08.11.05.06.09.14,0,0A4.21,4.21,0,0,1,55.63,50.55Zm6.07-4.69h0a1.55,1.55,0,0,1-1.55,1.55H58.66a5.9,5.9,0,0,0-1.33-3.59l0,0a1.46,1.46,0,0,0-.16-.19l0,0-.17-.18,0,0a6,6,0,0,0-4.25-1.75,6.64,6.64,0,0,0-1.18.11,6,6,0,0,0-3.06,1.64l0,0-.18.18,0,0a1.46,1.46,0,0,0-.16.19l0,0a6,6,0,0,0-1.33,3.59H17.07a5.94,5.94,0,0,0-1.34-3.6h0c-.05-.07-.11-.13-.17-.2l0,0-.21-.21a5.66,5.66,0,0,0-.94-.77,6,6,0,0,0-7.55.77l-.19.2-.06.06s-.09.1-.13.16l-.05.06L6.26,44l0,0c-.12.16-.22.32-.32.48v0c0,.08-.09.16-.13.24h0a5.92,5.92,0,0,0-.62,1.92L2.31,45.47a.83.83,0,0,1-.5-.77V35.94A2.4,2.4,0,0,1,3.7,33.61L5,33.34a13.68,13.68,0,0,0,6.87-3.71,11.83,11.83,0,0,1,8.41-3.47h11a11.84,11.84,0,0,1,6.67,2l6,4a14.4,14.4,0,0,0,5,2.33l8.25,1.64a5.63,5.63,0,0,1,3.72,2.61l.29.48a3.61,3.61,0,0,1,.52,1.87Z"/><path class="cls-1" d="M11.07,44.84a2.75,2.75,0,1,0,1.94.81A2.74,2.74,0,0,0,11.07,44.84Zm.66,3.41a.92.92,0,0,1-.66.28,1,1,0,0,1-.67-.28,1,1,0,0,1-.27-.66.94.94,0,0,1,.94-.94.94.94,0,0,1,.66,1.6Z"/><path class="cls-1" d="M52.66,44.84a2.77,2.77,0,1,0,1.94.81A2.73,2.73,0,0,0,52.66,44.84Zm.66,3.41a.91.91,0,0,1-.66.28.94.94,0,0,1,0-1.88,1,1,0,0,1,.94.94A.92.92,0,0,1,53.32,48.25Z"/></g></g></svg>