<svg xmlns="http://www.w3.org/2000/svg" viewBox="0 0 48.98 49"><defs><style>.cls-1{fill:#686868;}</style></defs><title>fa09</title><g id="圖層_2" data-name="圖層 2"><g id="圖層_7" data-name="圖層 7"><path class="cls-1" d="M38.46.12a12.25,12.25,0,0,0-13.73,9.7H12.24A2.44,2.44,0,0,0,9.8,12.27V24.51H2.59A2.52,2.52,0,0,0,0,27a2.33,2.33,0,0,0,.82,1.75,2.58,2.58,0,0,0,1.77.7H9.8V46.55A2.45,2.45,0,0,0,12.24,49h18a2.45,2.45,0,0,0,2.45-2.45V23.8A12.25,12.25,0,1,0,38.46.12ZM1.89,27.51A.74.74,0,0,1,1.63,27a.92.92,0,0,1,1-.82H20.27a1,1,0,0,1,.7.27.73.73,0,0,1,.25.55.91.91,0,0,1-.95.82H2.59A1.06,1.06,0,0,1,1.89,27.51Zm20.19-2.3a2.59,2.59,0,0,0-1.81-.7H17a4.9,4.9,0,1,1,0,4.9h3.29A2.52,2.52,0,0,0,22.86,27,2.34,2.34,0,0,0,22.08,25.21ZM31,46.55a.82.82,0,0,1-.82.82h-18a.82.82,0,0,1-.81-.82V29.41h3.74a6.53,6.53,0,1,0,0-4.9H11.43V12.27a.82.82,0,0,1,.81-.82H24.52c0,.27,0,.54,0,.82a12.16,12.16,0,0,0,4.68,9.61A11.71,11.71,0,0,0,31,23.08Zm5.71-23.67a10.53,10.53,0,0,1-4.45-1l-.2-.1a10.59,10.59,0,0,1-6-9.53,11,11,0,0,1,.11-1.52,10.61,10.61,0,1,1,10.5,12.13Z"/><path class="cls-1" d="M21.22,35.12a3.27,3.27,0,0,0-.81,6.43v3.37a.81.81,0,0,0,.81.81.82.82,0,0,0,.82-.81V41.55a3.27,3.27,0,0,0-.82-6.43Zm0,4.9a1.64,1.64,0,1,1,1.64-1.63A1.63,1.63,0,0,1,21.22,40Z"/><path class="cls-1" d="M14.19,13.16a.81.81,0,0,0-.89.18h0a.82.82,0,0,0,0,1.15l.12.1.15.08.14.05h.17a.84.84,0,0,0,.31-.05,1,1,0,0,0,.27-.18h0a.81.81,0,0,0,0-1.15A1,1,0,0,0,14.19,13.16Z"/><path class="cls-1" d="M22,13.08H16.33a.82.82,0,0,0,0,1.64H22a.82.82,0,0,0,0-1.64Z"/><path class="cls-1" d="M41.63,9H34.28V8.18a2.46,2.46,0,0,1,4.09-1.83l.11.1a.82.82,0,0,0,1.14-.19.83.83,0,0,0-.18-1.14,4.09,4.09,0,0,0-6.79,3.06V9h-.81a2.45,2.45,0,0,0-2.45,2.45v4.9a2.45,2.45,0,0,0,2.45,2.45h9.79a2.45,2.45,0,0,0,2.45-2.45v-4.9A2.45,2.45,0,0,0,41.63,9Zm.82,7.35a.82.82,0,0,1-.82.81H31.84a.82.82,0,0,1-.82-.81v-4.9a.82.82,0,0,1,.82-.82h9.79a.82.82,0,0,1,.82.82Z"/><path class="cls-1" d="M37.55,12.27H35.92a.82.82,0,0,0-.82.81.82.82,0,0,0,.82.82v.82a.81.81,0,0,0,.81.81.82.82,0,0,0,.82-.81V13.9a.82.82,0,0,0,.82-.82A.82.82,0,0,0,37.55,12.27Z"/></g></g></svg>