<svg xmlns="http://www.w3.org/2000/svg" viewBox="0 0 333.81 297.85"><defs><style>.cls-1{fill:#414852;}.cls-2{fill:#ff848b;}</style></defs><title>house-fix</title><g id="圖層_2" data-name="圖層 2"><g id="圖層_7" data-name="圖層 7"><path class="cls-1" d="M299.41,109,156.64,1.6a3.88,3.88,0,0,0-.46-.22,8.06,8.06,0,0,0-1.65-.79A8.15,8.15,0,0,0,153.09.1a8.05,8.05,0,0,0-1.7-.1,9.25,9.25,0,0,0-1.58.09,8.77,8.77,0,0,0-1.54.53,8.55,8.55,0,0,0-1.56.74c-.15.1-.33.12-.48.23L3.46,109a8.65,8.65,0,1,0,10.4,13.83L36.26,106V253c0,34,8.87,44.89,41.62,44.89H225c23.13,0,36-5.48,41.51-20.65a39.92,39.92,0,0,1-4.37-30.9l-9.53-9.53V253c0,24.75-4.32,27.59-27.61,27.59H192.7l-.67.68-2.35,2.34a19.21,19.21,0,0,1-27.19,0l-1.1-1.1a18.1,18.1,0,0,1-1.58-1.94h-37V207.1c0-8.6-1.65-8.76,7.87-8.76H172.2c9.52,0,11.17.16,11.17,8.76v26.22l8.66-8.65V207.1c0-14.9-7.27-17.42-19.83-17.42H130.67c-12.56,0-16.52,2.52-16.52,17.42v73.45H77.88c-23.3,0-24.31-2.84-24.31-27.59V98.83A8.35,8.35,0,0,0,52,94.16l99.42-74.82L253.18,95.91a8.82,8.82,0,0,0-.58,2.92v72.88l17.3-17.31V108.49L289,122.87a8.56,8.56,0,0,0,5.19,1.74,9.06,9.06,0,0,0,2-.22l4.92-3.17.05-.06A8.65,8.65,0,0,0,299.41,109Z"/><path class="cls-2" d="M324.12,233.27a33.09,33.09,0,0,0-35.6-7.33L269.9,207.32l-10.69-10.69L269.9,186l26-26L306,158.58l17.87-27.69-9.82-9.82-27.69,17.87L285,149.1l-15.1,15.1-17.3,17.31-4.26,4.25L216.54,154a33,33,0,0,0-28.68-45.18l13.91,13.89-6,22.45-22.45,6-19.07-19.08a33.08,33.08,0,0,0,43.84,40.39l28,28-34,34-8.66,8.65L166.29,260.2a12.3,12.3,0,0,0,0,17.39l1.09,1.09a12.14,12.14,0,0,0,14.9,1.87,10.35,10.35,0,0,0,1.09-.73,13.79,13.79,0,0,0,1.41-1.14l7.25-7.25,52.5-52.51L252.6,227l17.3,17.29.14.15c-.05.15-.08.31-.14.46V253a100.55,100.55,0,0,1-.78,13,33,33,0,0,0,36,23.4l-17.8-17.78,4.94-18.44,18.43-4.94L331.45,269A33.07,33.07,0,0,0,324.12,233.27Z"/></g></g></svg>