<svg xmlns="http://www.w3.org/2000/svg" viewBox="0 0 457.66 338.71"><defs><style>.cls-1{fill:#f9ba48;}.cls-2{fill:#0072b1;}</style></defs><title>資產 4</title><g id="圖層_2" data-name="圖層 2"><g id="圖層_7" data-name="圖層 7"><polyline class="cls-1" points="241.84 91.19 312.95 165.19 312.95 191.19 285.45 191.19 279.45 175.7 265.95 169.19 268.81 159.32 255.95 159.32 246.95 153.69 247.45 141.19 239.45 137.19 227.95 136.69 216.45 120.83"/><circle class="cls-1" cx="196.61" cy="76.03" r="54.89"/><path class="cls-2" d="M431.17,47.81C428.87,20.89,406.6,0,379.87,0a53.31,53.31,0,0,0-41.39,20c-.4-.18-.76-.33-1.12-.47l-.14-.05-.9-.33c-.68-.24-1.33-.43-2-.62l-.32-.08c-.27-.07-.53-.14-.71-.17-.76-.19-1.53-.31-2.19-.41l-.4-.07-.57-.09c-1.24-.12-2.2-.18-3.14-.18a28.37,28.37,0,0,0-28.32,28.31,42.38,42.38,0,0,0-20.48,35.57A39.62,39.62,0,0,0,317.76,121h15.07a4.93,4.93,0,1,0,0-9.86H317.76a29.75,29.75,0,0,1-29.71-29.71c0-11.42,7.43-23.27,17.68-28.19l2.78-1.35V48.78c0-.21,0-.42,0-.63l.06-1-.06-1c0-.11,0-.22,0-.33A18.5,18.5,0,0,1,327,27.39a18.78,18.78,0,0,1,2.46.19l.57.08a19.23,19.23,0,0,1,2.14.48l.25.07a16.2,16.2,0,0,1,2.23.86l.39.19.1,0A19.82,19.82,0,0,1,337,30.36a18.42,18.42,0,0,1,8.45,15.51,4.93,4.93,0,0,0,9.86,0,28.3,28.3,0,0,0-8.62-20.33,44.15,44.15,0,0,1,33.18-15.7c20.6,0,38.26,15.85,41.17,36.49a54.76,54.76,0,0,0-10,.51,4.92,4.92,0,0,0,.75,9.79,4.8,4.8,0,0,0,.62,0h.12a52.51,52.51,0,0,1,13.07,0c12.66,2.45,22.2,14.14,22.2,27.23a27.36,27.36,0,0,1-27.32,27.33H408.87a4.93,4.93,0,0,0,0,9.86h11.62a37.22,37.22,0,0,0,37.17-37.19A38.09,38.09,0,0,0,431.17,47.81Z"/><path class="cls-2" d="M374.34,77.48a5,5,0,0,0-1.6-1.07,4.86,4.86,0,0,0-3.78,0,5.12,5.12,0,0,0-1.59,1.07L344,100.87a4.92,4.92,0,1,0,7,6.95l15-15V201.45a4.93,4.93,0,0,0,9.85,0V92.85l15,15a5,5,0,0,0,3.49,1.45,4.93,4.93,0,0,0,3.48-8.4Z"/><path class="cls-2" d="M153.46,125.68c-.34,5.08-.54,10.52-.54,16.42,0,27.36,8.16,43.69,21.84,43.69,17.25,0,21.85-20.59,21.85-32.77a5.47,5.47,0,0,0-10.93,0c0,.22-.46,21.85-10.92,21.85-6.33,0-10.92-13.78-10.92-32.77,0-63.67,22.35-70.92,23-71.13a5.46,5.46,0,0,0-2.27-10.68c-1.1.22-5.06,1.26-9.82,5.34a11.26,11.26,0,0,1,.33-2.82,10.92,10.92,0,1,1,16,12.29,5.46,5.46,0,0,0,2.73,10.19,5.4,5.4,0,0,0,2.73-.73,21.92,21.92,0,1,0-30.2-8.83c-4.69,7.62-9.07,19-11.5,35.86a53.73,53.73,0,1,1,24.37,16.79,5.46,5.46,0,0,0-3.47,10.35,66.41,66.41,0,1,0-22.35-13Z"/><path class="cls-2" d="M257.57,102.5a5.46,5.46,0,1,0-7.72,7.72L305,165.34v19.59H285.38l-2.26-2.26V168.54a5.46,5.46,0,0,0-5.46-5.46H272.2v-5.46a5.46,5.46,0,0,0-5.46-5.46H252.62l-2.26-2.27V135.78a5.47,5.47,0,0,0-5.46-5.47H230.77l-.53-.52a5.46,5.46,0,1,0-7.72,7.72l2.13,2.13a5.47,5.47,0,0,0,3.86,1.6h10.92v10.91A5.47,5.47,0,0,0,241,156l5.46,5.47a5.45,5.45,0,0,0,3.87,1.6h10.92v5.46a5.46,5.46,0,0,0,5.46,5.46h5.46v10.93a5.44,5.44,0,0,0,1.6,3.86l5.46,5.46a5.44,5.44,0,0,0,3.86,1.6h27.31a5.46,5.46,0,0,0,5.46-5.46V163.08a5.42,5.42,0,0,0-1.6-3.86Z"/><path class="cls-2" d="M32.77,103.87a5.47,5.47,0,0,0,5.46,5.46h5.46V142.1H38.23a5.46,5.46,0,1,0,0,10.92h5.46v32.77H38.23a5.46,5.46,0,1,0,0,10.92h5.46v32.77H38.23a5.46,5.46,0,1,0,0,10.92h5.46v32.77H38.23a5.46,5.46,0,0,0,0,10.92h5.46V311.4a5.46,5.46,0,0,0,10.92,0V284.09H76.46V311.4a5.46,5.46,0,1,0,10.92,0V284.09h21.84V311.4a5.47,5.47,0,0,0,10.93,0V284.09H142V311.4a5.47,5.47,0,0,0,10.93,0V284.09h5.45a5.46,5.46,0,1,0,0-10.92h-5.45V240.4h5.45a5.46,5.46,0,1,0,0-10.92h-5.45V196.71a5.46,5.46,0,0,0,0-10.92,5.47,5.47,0,0,0-10.93,0H120.15V153h16.38a5.46,5.46,0,0,0,0-10.92H120.15V109.33h2.73a5.46,5.46,0,0,0,0-10.92H38.23A5.47,5.47,0,0,0,32.77,103.87Zm87.38,92.84H142v32.77H120.15Zm0,43.69H142v32.77H120.15ZM87.38,109.33h21.84V142.1H87.38Zm0,43.69h21.84v32.77H87.38Zm0,43.69h21.84v32.77H87.38Zm0,43.69h21.84v32.77H87.38ZM54.61,109.33H76.46V142.1H54.61Zm0,43.69H76.46v32.77H54.61Zm0,43.69H76.46v32.77H54.61Zm0,43.69H76.46v32.77H54.61Z"/><path class="cls-2" d="M114.69,87.49a5.46,5.46,0,0,0,0-10.92H81.92a5.46,5.46,0,0,0,0,10.92Z"/><path class="cls-2" d="M322.22,327.78H240.3V305.39a27.36,27.36,0,0,0,21.84-26.76c0-.71-.31-71-27.3-71s-27.31,70.28-27.31,71a27.36,27.36,0,0,0,21.84,26.76v22.39H185.68V202.18a5.46,5.46,0,1,0-10.92,0v125.6H21.84V87.49H60.07A5.46,5.46,0,0,0,65.53,82V65.64h49.16a5.46,5.46,0,1,0,0-10.92H60.07a5.47,5.47,0,0,0-5.46,5.46V76.57H16.38A5.46,5.46,0,0,0,10.92,82V327.78H5.46a5.47,5.47,0,0,0,0,10.93H322.22a5.47,5.47,0,0,0,0-10.93ZM218.45,278.63c0-27.21,7.31-60.07,16.39-60.07s16.38,32.86,16.38,60.07a16.39,16.39,0,1,1-32.77,0Z"/></g></g></svg>