<svg xmlns="http://www.w3.org/2000/svg" viewBox="0 0 409.6 380"><defs><style>.cls-1{fill:#f9ba48;}.cls-2{fill:#0072b1;}.cls-3{fill:#fff;}</style></defs><title>資產 3</title><g id="圖層_2" data-name="圖層 2"><g id="圖層_7" data-name="圖層 7"><rect class="cls-1" x="119.72" y="175.17" width="278.16" height="120"/><path class="cls-2" d="M393.81,167.74H280.46V154.23a21.67,21.67,0,0,0-43.33,0v13.51H123.79a15.78,15.78,0,0,0-15.71,14.12c0,.53-.08,1.07-.08,1.61V286.21a15.78,15.78,0,0,0,15.79,15.73H142.9v42.84H60.52V137.09L198.35,45.75,336.2,137.09v16.58a5.86,5.86,0,0,0,11.71,0v-8.82l17.77,11.77a19.92,19.92,0,1,0,22.12-33.13L204,1.72a10.23,10.23,0,0,0-11.35,0L86.05,72.37a5.84,5.84,0,1,0,6.49,9.72L198.35,12l183,121.23a8.21,8.21,0,0,1,0,13.69,8.26,8.26,0,0,1-9.14,0L204,35.48a10.27,10.27,0,0,0-11.35,0L24.54,146.9a8.26,8.26,0,0,1-9.14,0,8.21,8.21,0,0,1,0-13.69l46.83-31a5.81,5.81,0,0,0,1.63-8.09,5.87,5.87,0,0,0-8.12-1.63l-46.83,31A19.92,19.92,0,0,0,31,156.62L48.8,144.85V344.78H26.34a17.61,17.61,0,1,0,0,35.22h344a17.61,17.61,0,1,0,0-35.22H347.92V316a5.86,5.86,0,0,0-11.72,0v28.78H280.46V301.94H393.81a15.78,15.78,0,0,0,15.79-15.73V183.47a15.77,15.77,0,0,0-15.79-15.73Zm-145-13.51a10,10,0,0,1,19.9,0v13.51h-19.9Zm-11.72,214.1H26.34a5.94,5.94,0,1,1,0-11.88H237.13Zm0-23.55H154.62V301.94h82.51Zm31.62,23.55h-19.9V301.94h19.9Zm101.63-11.88a5.94,5.94,0,1,1,0,11.88H280.46V356.45Zm23.43-66.19h-270a4.06,4.06,0,0,1-4.07-4.05V183.47a4.07,4.07,0,0,1,4.07-4.06h270a4.07,4.07,0,0,1,4.07,4.06V286.21a4.06,4.06,0,0,1-4.07,4.05Z"/><path class="cls-2" d="M198.35,71.44a36.78,36.78,0,1,0,36.92,36.78,36.89,36.89,0,0,0-36.92-36.78Zm-5.85,61.19A25.23,25.23,0,0,1,173.85,114H192.5Zm0-30.27H173.86A25.23,25.23,0,0,1,192.5,83.81Zm11.71-18.55a25.23,25.23,0,0,1,18.64,18.55H204.21Zm0,48.82V114h18.65a25.23,25.23,0,0,1-18.65,18.6Z"/><path class="cls-3" d="M204.72,259l-11.13-20.55c6.37-2,11.12-7.19,11.12-16.92,0-13.45-9-17.68-20.12-17.68H167.78a3.45,3.45,0,0,0-3.57,3.39v55c0,2.28,2.81,3.47,5.52,3.47s5.52-1.19,5.52-3.47V240.18h7.13l12.06,23.35a4.34,4.34,0,0,0,3.82,2.62c3.23,0,6.88-3,6.88-5.75a2.37,2.37,0,0,0-.42-1.36Zm-20.13-27.49h-9.34v-18h9.34c5.52,0,9.09,2.37,9.09,9.05s-3.57,9-9.09,9Z"/><path class="cls-3" d="M249.38,256.08h-24v-17h12.91c2.38,0,3.48-2.28,3.48-4.23,0-2.28-1.27-4.4-3.48-4.4H225.34V213.54h24c2.2,0,3.47-2.29,3.47-4.91,0-2.28-1.1-4.74-3.47-4.74H219.14c-2.46,0-4.84,1.19-4.84,3.47v54.9c0,2.28,2.38,3.47,4.84,3.47h30.24c2.37,0,3.47-2.46,3.47-4.74,0-2.62-1.27-4.91-3.47-4.91Z"/><path class="cls-3" d="M296.67,203.89c-2.8,0-5.52,1-5.52,3.39v34l-16.39-31.55c-2.63-5-4.25-5.84-8.24-5.84-2.8,0-5.52,1.11-5.52,3.47v54.9c0,2.28,2.72,3.47,5.52,3.47s5.52-1.19,5.52-3.47v-34l18.26,34c1.44,2.62,3.73,3.47,6.37,3.47s5.52-1.19,5.52-3.47v-55c0-2.37-2.8-3.39-5.52-3.39Z"/><path class="cls-3" d="M349.39,203.89H313.48c-2.38,0-3.48,2.55-3.48,4.91,0,2.71,1.27,5,3.48,5H326v48.47c0,2.28,2.72,3.47,5.52,3.47s5.52-1.19,5.52-3.47V213.79h12.39c2.21,0,3.49-2.37,3.49-5,0-2.36-1.11-4.91-3.49-4.91Z"/></g></g></svg>