<svg xmlns="http://www.w3.org/2000/svg" viewBox="0 0 212.19 77.23"><defs><style>.cls-1{fill:#215ea4;}.cls-2{fill:#fff;}.cls-3{fill:#ff848b;}.cls-4{fill:#0072b1;}.cls-5{fill:none;}.cls-6{fill:#686868;}</style></defs><title>logo</title><g id="圖層_2" data-name="圖層 2"><g id="圖層_7" data-name="圖層 7"><polygon class="cls-1" points="27.08 55.95 27.09 55.95 27.09 55.95 27.08 55.95"/><polygon class="cls-2" points="34.26 0 34.25 0 34.26 0 34.26 0"/><path class="cls-3" d="M34.46,0h0Z"/><path class="cls-3" d="M68.13,20.93a8.28,8.28,0,0,0-3.33-4.35L37.9.89A7.34,7.34,0,0,0,34.46,0h-.28a7.44,7.44,0,0,0-3.65.89L3.69,16.53A8.37,8.37,0,0,0,.09,22a43.46,43.46,0,0,1,18.27,5.17c.27-.14.55-.26.83-.38l.53-.21A12.72,12.72,0,0,0,24,23.65a14.78,14.78,0,0,1,20.43,0,12.85,12.85,0,0,0,4.31,2.92l.53.21A13,13,0,0,1,52.05,49.3,38.44,38.44,0,0,1,65.55,74h0c0,.44.08.92.09,1.31a4,4,0,0,0,2.82-3.82V23A6.71,6.71,0,0,0,68.13,20.93Z"/><path class="cls-3" d="M24.15,34.8a4.16,4.16,0,0,0-1.23.19,4,4,0,1,0,5.16,4.62,4.15,4.15,0,0,0,.08-.79A4,4,0,0,0,24.15,34.8Z"/><path class="cls-3" d="M44.39,34.8h-.06a4,4,0,0,0,0,8h.06a4,4,0,0,0,0-8Z"/><polygon class="cls-4" points="40.5 51.26 40.5 51.26 40.51 51.26 40.5 51.26"/><polygon class="cls-5" points="40.5 51.26 40.5 51.26 40.51 51.26 40.5 51.26"/><path class="cls-5" d="M44.39,34.8h-.06a4,4,0,0,0,0,8h.06a4,4,0,0,0,0-8Z"/><path class="cls-5" d="M24.15,34.8a4.16,4.16,0,0,0-1.23.19,4,4,0,1,0,5.16,4.62,4.15,4.15,0,0,0,.08-.79A4,4,0,0,0,24.15,34.8Z"/><path class="cls-4" d="M47.94,51.33a13.34,13.34,0,0,1-3.61.5,13.1,13.1,0,0,1-3.83-.57,25.24,25.24,0,0,0-12.53,0h0A13,13,0,0,1,11.13,38.82,12.94,12.94,0,0,1,14.59,30,40.73,40.73,0,0,0,.08,26.48H0v45a4,4,0,0,0,4,4H61.59v-.2A36,36,0,0,0,47.94,51.33Z"/><path class="cls-2" d="M65.57,74h0A38.44,38.44,0,0,0,52.05,49.3a13,13,0,0,0-2.76-22.52l-.53-.21a12.85,12.85,0,0,1-4.31-2.92,14.78,14.78,0,0,0-20.43,0,12.72,12.72,0,0,1-4.3,2.92l-.53.21c-.28.12-.56.24-.83.38A43.46,43.46,0,0,0,.09,22,5.28,5.28,0,0,0,0,23v3.53H.08A40.73,40.73,0,0,1,14.59,30a13,13,0,0,0,9.56,21.84A13.1,13.1,0,0,0,28,51.26h0a25.24,25.24,0,0,1,12.53,0h0a13.1,13.1,0,0,0,3.83.57,13.34,13.34,0,0,0,3.61-.5,36,36,0,0,1,13.65,24v.2h2.88a3.94,3.94,0,0,0,1.19-.18C65.65,74.93,65.61,74.45,65.57,74ZM28.08,39.61A4,4,0,1,1,22.92,35a4.16,4.16,0,0,1,1.23-.19,4,4,0,0,1,4,4A4.15,4.15,0,0,1,28.08,39.61Zm16.31,3.22h-.06a4,4,0,0,1,0-8h.06a4,4,0,0,1,0,8Z"/><path class="cls-6" d="M95.69,40.55c1.15,0,1.75.62,1.75,1.36a2,2,0,0,1-.67,1.39A19.72,19.72,0,0,1,93.14,46a28.46,28.46,0,0,0,8.54,1.77.76.76,0,0,1,.75.88v.18a.92.92,0,0,1-1,.9h-.1A27,27,0,0,1,91.05,47a36.06,36.06,0,0,1-10.63,2.75h-.1a1,1,0,0,1-1-.9v-.15a.83.83,0,0,1,.77-.85,32.94,32.94,0,0,0,9-2,21.22,21.22,0,0,1-3.6-3A21.94,21.94,0,0,1,81,45.78a1.07,1.07,0,0,1-.44.1.91.91,0,0,1-.84-.49.82.82,0,0,1-.11-.44.93.93,0,0,1,.52-.87,17.47,17.47,0,0,0,7-5.28c-1.11-.23-1.24-.67-1.24-1.44V34.3c0-.49.39-.73.93-.73s.92.26.92.73v2.44c0,.62.19.77,3.51.77,2.62,0,3-.13,3.21-1.36a.68.68,0,0,1,.75-.62,1.09,1.09,0,0,1,.31,0c.46.1.82.38.82.82v.13c-.33,2.08-1,2.5-5.22,2.5-.85,0-1.55,0-2.14,0-.44.59-.87,1.18-1.36,1.73a14.48,14.48,0,0,1,2.34-.16ZM84.26,31.21a18.37,18.37,0,0,0-1-2.4H81.4a.78.78,0,0,1-.85-.82.79.79,0,0,1,.9-.88c3.94,0,7.8-.1,11.28-.43a49.92,49.92,0,0,0,6.77-1.06,1.65,1.65,0,0,1,.38-.05.8.8,0,0,1,.83.59,1.15,1.15,0,0,1,.07.39.86.86,0,0,1-.79.82c-.62.13-1.29.26-2,.36l.28.08c.44.15.62.38.62.67a.88.88,0,0,1-.1.41c-.36.69-.83,1.52-1.34,2.32h2.44c1.57,0,2.27.56,2.27,2v2.75c0,.54-.44.75-1,.75s-1-.21-1-.75V33.5c0-.52-.26-.67-.75-.67h-17c-.49,0-.75.15-.75.67v2.44c0,.54-.44.75-1,.75s-1-.21-1-.75V33.19c0-1.42.7-2,2.27-2Zm.56,4a1.48,1.48,0,0,1-.07.44,13.41,13.41,0,0,1-2.55,4.07,1.1,1.1,0,0,1-.8.38,1.15,1.15,0,0,1-.72-.28.73.73,0,0,1-.26-.57,1.13,1.13,0,0,1,.36-.79A10.46,10.46,0,0,0,83.05,35c.2-.52.49-.7.8-.7a.9.9,0,0,1,.36.08A.83.83,0,0,1,84.82,35.22Zm5.49-4a18.7,18.7,0,0,0-1.08-2.6c-.85.05-1.73.07-2.58.1-.49,0-1,0-1.47.05a20.85,20.85,0,0,1,1,2.45ZM87.06,42.12a18.7,18.7,0,0,0,4,2.94,16.68,16.68,0,0,0,3.73-2.48A.38.38,0,0,0,95,42.3c0-.1-.13-.18-.38-.18Zm5.85-6.95a1,1,0,0,1,.36.7.94.94,0,0,1-.21.54,1.06,1.06,0,0,1-.75.33,1,1,0,0,1-.64-.23,28,28,0,0,0-2.44-1.75.68.68,0,0,1-.34-.59.81.81,0,0,1,.21-.54.89.89,0,0,1,.69-.31,1.23,1.23,0,0,1,.65.18A18.37,18.37,0,0,1,92.91,35.17Zm2.44-4a27.52,27.52,0,0,0,1.55-2.94.77.77,0,0,1,.36-.41c-1.29.18-2.71.36-4.25.49l-1.88.15a20.39,20.39,0,0,1,1.08,2.71Zm1.78,3a1.26,1.26,0,0,1,.87.41,26.23,26.23,0,0,1,3,3.78,1.13,1.13,0,0,1,.18.62.9.9,0,0,1-.43.77.91.91,0,0,1-.52.16,1,1,0,0,1-.87-.54,25.27,25.27,0,0,0-2.86-3.68,1,1,0,0,1-.28-.65.88.88,0,0,1,.36-.69A.84.84,0,0,1,97.13,34.17Z"/><path class="cls-6" d="M113.73,28.58a14.33,14.33,0,0,1-1.8,2.42,14.44,14.44,0,0,1,1.7,3.73,12.66,12.66,0,0,0,2-3.14.74.74,0,0,1,.67-.44,1.11,1.11,0,0,1,.52.16.88.88,0,0,1,.43.72,1,1,0,0,1-.12.44,17.78,17.78,0,0,1-3,4.06A19.43,19.43,0,0,0,118,42.94a1.07,1.07,0,0,1,.26.65,1,1,0,0,1-.28.67.93.93,0,0,1-.65.31.55.55,0,0,1-.49-.26,13.65,13.65,0,0,1-2.36-3.94c0,.93,0,1.85,0,2.81,0,4.63-.75,6-3.17,6a7.69,7.69,0,0,1-2.14-.31.86.86,0,0,1-.61-.85,1.47,1.47,0,0,1,0-.34.79.79,0,0,1,.77-.59,2.23,2.23,0,0,1,.36,0,5,5,0,0,0,1.49.23c1,0,1.52-.49,1.52-4.35,0-.72,0-1.46,0-2.18A18.45,18.45,0,0,1,108,45.31a.89.89,0,0,1-.49.16,1,1,0,0,1-.8-.52,1.2,1.2,0,0,1-.13-.51.82.82,0,0,1,.42-.7,20.29,20.29,0,0,0,5.63-5.12,16.92,16.92,0,0,0-.49-2.83,15.14,15.14,0,0,1-4.09,3.71,1.2,1.2,0,0,1-.57.18.73.73,0,0,1-.66-.39.87.87,0,0,1-.19-.54.82.82,0,0,1,.42-.7,17.37,17.37,0,0,0,4.58-3.93,12.71,12.71,0,0,0-.9-1.94,18.53,18.53,0,0,1-2.63,1.88,1.2,1.2,0,0,1-.49.13.81.81,0,0,1-.72-.49,1.14,1.14,0,0,1-.13-.46.77.77,0,0,1,.44-.67,12.08,12.08,0,0,0,4.58-4h-4.32c-.52,0-.77-.36-.77-.87s.25-.85.77-.85H117c.49,0,.74.3.74.85s-.25.87-.74.87ZM124.11,33a25.82,25.82,0,0,0,3.81-5.74.69.69,0,0,1,.64-.43,1.5,1.5,0,0,1,.52.12.85.85,0,0,1,.51.7.78.78,0,0,1-.1.41A32.57,32.57,0,0,1,126.17,33h3.65c.47,0,.72.31.72.83s-.25.8-.72.8h-5.07a25.41,25.41,0,0,1-3.53,3.26c.34,0,.7-.05,1-.05h4.58c1.29,0,2.11.67,2.11,1.88v7.36c0,1.37-.69,1.93-2.06,1.93h-5.53c-1.42,0-2.11-.56-2.11-1.93V41.17a9,9,0,0,1,.15-1.86l-1.31.85a1.05,1.05,0,0,1-.49.13.87.87,0,0,1-.75-.46,1.09,1.09,0,0,1-.15-.52.84.84,0,0,1,.51-.77,24.57,24.57,0,0,0,5.36-3.88h-4.79c-.49,0-.72-.31-.72-.8s.23-.83.72-.83h3.81V30h-2.91a.73.73,0,0,1-.72-.82c0-.52.26-.83.72-.83h2.91v-1.9c0-.44.31-.67.87-.67s.88.23.88.67v1.9h2.37c.46,0,.69.31.69.83a.72.72,0,0,1-.74.82h-2.32v3Zm3,9.5V40.06c0-.49-.24-.62-.73-.62h-4.76c-.46,0-.69.13-.69.62v2.47ZM121,46.78c0,.49.23.62.69.62h4.76c.49,0,.73-.13.73-.62V44.13H121Zm7.93-9.94a.85.85,0,0,1,.23.54.77.77,0,0,1-.23.52.7.7,0,0,1-.57.28.78.78,0,0,1-.59-.26,22.38,22.38,0,0,0-2.22-1.77.55.55,0,0,1-.25-.49.68.68,0,0,1,.25-.52.86.86,0,0,1,.57-.25.73.73,0,0,1,.46.15A12.33,12.33,0,0,1,128.9,36.84Z"/><path class="cls-6" d="M138.58,37.2a2.07,2.07,0,0,1-2.37-2.29V29c0-.52.39-.77,1-.77s1,.25,1,.77V34.5c0,.62.26.82.85.82h5.46V26.93c0-.51.41-.82,1-.82s1,.31,1,.82v8.39h5.72c.59,0,.85-.2.85-.82V29c0-.54.39-.79,1-.79s1,.25,1,.79v5.87c0,1.57-.85,2.29-2.39,2.29h-6.21v9.63h6.67c.62,0,.93-.26.93-.87V40.22c0-.57.41-.85,1-.85s1,.28,1,.85v6.15a2.13,2.13,0,0,1-2.45,2.39H137.52a2.13,2.13,0,0,1-2.42-2.42v-6.1c0-.59.39-.87,1-.87s1,.28,1,.87V46c0,.61.29.87.9.87h6.49V37.2Z"/><path class="cls-6" d="M170.37,32.78c.46,0,.72.33.72.87s-.26.88-.72.88h-2.86a16.55,16.55,0,0,0,3.25,4.35.86.86,0,0,1,.28.67.87.87,0,0,1-.26.61.69.69,0,0,1-.59.29.93.93,0,0,1-.64-.29,12.91,12.91,0,0,1-2.47-3.88,34.46,34.46,0,0,1,.31,3.81V49c0,.46-.34.75-.93.75s-.9-.29-.9-.75V40.34a27.45,27.45,0,0,1,.38-3.78,24.15,24.15,0,0,1-3.39,6.77,1.16,1.16,0,0,1-.88.44.79.79,0,0,1-.54-.18,1,1,0,0,1-.36-.75.89.89,0,0,1,.26-.64,23.18,23.18,0,0,0,4.24-7.67h-3.42c-.46,0-.72-.36-.72-.88s.26-.87.72-.87h3.71V29.15c-1.06.23-2.09.43-3,.56h-.18a.77.77,0,0,1-.88-.69.75.75,0,0,1,0-.21.81.81,0,0,1,.77-.82,26.74,26.74,0,0,0,6.87-1.85,1.34,1.34,0,0,1,.54-.13.86.86,0,0,1,.77.43,1,1,0,0,1,.11.47.88.88,0,0,1-.57.82,19.68,19.68,0,0,1-2.62.95v4.1ZM184.5,47.11c.47,0,.72.37.72.88s-.25.93-.72.93H170c-.47,0-.72-.39-.72-.93s.25-.88.72-.88h2V28.84c0-1.55.73-2.16,2.22-2.16h6.49c1.49,0,2.18.61,2.18,2.16V47.11ZM181,29.2c0-.57-.26-.72-.78-.72h-5.45c-.52,0-.75.15-.75.72v4h7Zm-7,10.68h7V35h-7Zm0,7.23h7V41.68h-7Z"/><path class="cls-6" d="M191.3,40.89v0a29.14,29.14,0,0,1-1.08,6.51.78.78,0,0,1-.8.54,1.81,1.81,0,0,1-.31-.05.8.8,0,0,1-.67-.75.61.61,0,0,1,0-.23,23.41,23.41,0,0,0,1.08-6.18.77.77,0,0,1,.85-.62h.08C190.94,40.19,191.3,40.42,191.3,40.89Zm1.21-2.27c-1,.1-2.08.21-3.06.26h-.08a.77.77,0,0,1-.82-.85V37.9a.71.71,0,0,1,.74-.77c.42,0,.83,0,1.27-.05.56-.73,1.08-1.47,1.59-2.22a35.34,35.34,0,0,0-3.19-4,.86.86,0,0,1-.26-.57,1,1,0,0,1,.28-.62,1,1,0,0,1,.62-.31.76.76,0,0,1,.54.26c.18.18.36.39.52.57a22.66,22.66,0,0,0,2.19-4,.72.72,0,0,1,.69-.44,1.05,1.05,0,0,1,.49.1.79.79,0,0,1,.54.72.82.82,0,0,1-.1.41,32.33,32.33,0,0,1-2.7,4.51c.48.59.95,1.18,1.41,1.8a43.89,43.89,0,0,0,2.29-4,.79.79,0,0,1,.7-.49,1,1,0,0,1,.46.13.86.86,0,0,1,.52.72A.94.94,0,0,1,197,30,49.48,49.48,0,0,1,192.49,37c1.1-.08,2.18-.21,3.29-.34-.23-.62-.46-1.21-.72-1.75a.64.64,0,0,1-.05-.23.71.71,0,0,1,.46-.59,1.09,1.09,0,0,1,.39-.08.7.7,0,0,1,.62.36A25.77,25.77,0,0,1,198,38.47a.27.27,0,0,1,0,.15.79.79,0,0,1-.62.72.83.83,0,0,1-.28,0,.61.61,0,0,1-.67-.47c-.08-.25-.13-.51-.21-.77-.64.1-1.31.21-2,.28V49c0,.44-.41.67-.92.67s-.88-.23-.88-.67ZM196.17,40c.33,0,.56.18.67.59a45.23,45.23,0,0,1,.77,4.79v.12c0,.44-.26.67-.75.75h-.18a.74.74,0,0,1-.77-.69,36.06,36.06,0,0,0-.64-4.53.77.77,0,0,1,0-.26.76.76,0,0,1,.62-.75A1.56,1.56,0,0,1,196.17,40ZM212,47.14c0,1.6-.83,2.21-2.65,2.21a14,14,0,0,1-2.6-.25c-.42-.08-.62-.36-.62-.85a.86.86,0,0,1,0-.23.74.74,0,0,1,.75-.7.51.51,0,0,1,.21,0,11.23,11.23,0,0,0,2,.23c.82,0,1-.16,1-.8V28.86c0-.54-.25-.67-.72-.67h-8.59c-.49,0-.72.13-.72.67V49c0,.47-.36.7-.91.7s-.92-.23-.92-.7V28.48c0-1.42.64-2,2-2h9.6c1.39,0,2,.56,2,2Zm-10.76-12.2c-.39,0-.62-.34-.62-.8s.23-.77.62-.77h4a22.72,22.72,0,0,0,1.49-3.89.66.66,0,0,1,.7-.49,2.42,2.42,0,0,1,.33.05c.39.11.62.31.62.62a.59.59,0,0,1,0,.21,27.61,27.61,0,0,1-1.46,3.5h2.21c.39,0,.64.31.64.77s-.25.8-.64.8H205.9v2.57h3.19c.39,0,.64.29.64.78s-.25.82-.64.82h-5v3.53c0,.79.21.87,1.85.87a15.25,15.25,0,0,0,1.88-.1H208a.69.69,0,0,1,.75.74v.08a.8.8,0,0,1-.77.88,14.08,14.08,0,0,1-2.19.13c-2.68,0-3.37-.36-3.37-2V39.11h-1.29c-.41,0-.62-.36-.62-.82s.21-.78.62-.78h3.06V34.94ZM202.5,29a.65.65,0,0,1,.57.31,15.7,15.7,0,0,1,1.15,2.63.38.38,0,0,1,0,.18.7.7,0,0,1-.54.64,1.49,1.49,0,0,1-.36,0,.66.66,0,0,1-.64-.41,22.8,22.8,0,0,0-1-2.32.62.62,0,0,1,.31-1A1,1,0,0,1,202.5,29Z"/><path class="cls-6" d="M84.3,57.2a1.43,1.43,0,1,1-1.42-1.42A1.41,1.41,0,0,1,84.3,57.2Zm-2.39,4.2c0-.55.36-.82,1-.82s1,.27,1,.82V71.73c0,.58-.41.85-1,.85s-1-.27-1-.85Z"/><path class="cls-6" d="M99,70.61a.78.78,0,0,1,.78.89c0,.51-.27,1-.78,1H89.33a1.14,1.14,0,0,1-1.27-1.27,6.07,6.07,0,0,1,.8-2.42,11.25,11.25,0,0,1,4-4.07l1.47-.95c2.07-1.36,3-2.19,3-3.8S96,57.4,94,57.4a3.37,3.37,0,0,0-3.65,2.9.89.89,0,0,1-.94.66,1.62,1.62,0,0,1-.31,0,.92.92,0,0,1-.81-.87,1.75,1.75,0,0,1,0-.32,5.46,5.46,0,0,1,1.4-2.59,5.88,5.88,0,0,1,4.37-1.53c3.23,0,5.28,1.68,5.28,4.37s-1.63,3.76-3.56,5l-1.4.85c-2.35,1.48-3.71,2.88-4.22,4.79Z"/><path class="cls-6" d="M112.13,61.34c0-.44.29-.76.91-.76s.91.27.91.85v9.82c0,4.87-2.57,6-5.36,6A5.49,5.49,0,0,1,104,75.42a.8.8,0,0,1-.16-.46,1,1,0,0,1,.4-.75,1.12,1.12,0,0,1,.61-.21.8.8,0,0,1,.62.28,3.69,3.69,0,0,0,3,1.36c2.65,0,3.61-1.34,3.63-4.48a9.69,9.69,0,0,1,.08-1,4,4,0,0,1-3.77,2.27c-3,0-5.11-2.33-5.11-5.87s1.88-6.11,5.15-6.11a3.86,3.86,0,0,1,3.73,2.42c0-.24-.08-.64-.08-.87Zm-6.85,5.2c0,2.69,1.44,4.32,3.41,4.32,2.16,0,3.48-1.84,3.48-4.47S110.88,62,108.71,62,105.28,63.8,105.28,66.54Z"/><path class="cls-6" d="M119.83,58.14c0-.55.36-.85,1-.85a.84.84,0,0,1,1,.85V60.7h2.72c.53,0,.78.34.78.85a.74.74,0,0,1-.78.83h-2.72v7.1c0,1,.45,1.49,1.23,1.49a2.34,2.34,0,0,0,1.26-.36.87.87,0,0,1,.38-.11.8.8,0,0,1,.7.55,1.29,1.29,0,0,1,.08.47.83.83,0,0,1-.44.76,4.38,4.38,0,0,1-2.1.47c-1.74,0-3-.87-3-3.1V62.38h-1.66c-.51,0-.74-.34-.74-.83s.23-.85.76-.85h1.64Z"/><path class="cls-6" d="M129,61.4c0-.55.4-.82,1-.82s1,.27,1,.82v.47a9.82,9.82,0,0,1-.13,1,3.56,3.56,0,0,1,3.25-2.4,3.78,3.78,0,0,1,.46,0,3.35,3.35,0,0,1,.85.11.7.7,0,0,1,.68.76,2.47,2.47,0,0,1,0,.36.91.91,0,0,1-.83.83.62.62,0,0,1-.19,0,4,4,0,0,0-1-.13,2.77,2.77,0,0,0-2.14,1.16,3.83,3.83,0,0,0-.89,2.36v5.85c0,.58-.42.85-1,.85s-1-.27-1-.85Z"/><path class="cls-6" d="M141.86,57.2a1.43,1.43,0,1,1-1.42-1.42A1.42,1.42,0,0,1,141.86,57.2Zm-2.4,4.2c0-.55.36-.82,1-.82s1,.27,1,.82V71.73c0,.58-.4.85-1,.85s-1-.27-1-.85Z"/><path class="cls-6" d="M147.9,76.21c0,.53-.36.83-.93.83s-.95-.3-.95-.83V61.4c0-.55.36-.82.95-.82s.93.25.93.78v.38a8.22,8.22,0,0,1-.08,1.17,4.07,4.07,0,0,1,4-2.5c3.18,0,5,2.31,5,6.08s-1.91,6.28-5.07,6.28a4,4,0,0,1-3.9-2.46,6.51,6.51,0,0,1,.1,1.23Zm0-9.65c0,2.63,1.38,4.54,3.61,4.54s3.35-1.83,3.35-4.56-1.17-4.48-3.31-4.48C149.18,62.06,147.86,64,147.86,66.56Z"/><path class="cls-6" d="M164,71.1a1.47,1.47,0,1,1-1.47-1.45A1.42,1.42,0,0,1,164,71.1Z"/><path class="cls-6" d="M173.61,60.39a4.35,4.35,0,0,1,4.47,2.88.81.81,0,0,1,.07.32.88.88,0,0,1-.64.78,1.53,1.53,0,0,1-.47.07.75.75,0,0,1-.74-.49A2.53,2.53,0,0,0,173.65,62c-2.21,0-3.41,1.87-3.41,4.56s1.18,4.54,3.43,4.54a2.56,2.56,0,0,0,2.72-2,.77.77,0,0,1,.78-.57,1.19,1.19,0,0,1,.45.08.77.77,0,0,1,.68.72,1,1,0,0,1-.09.38,4.39,4.39,0,0,1-4.58,3c-3.44,0-5.37-2.52-5.37-6.17S170.13,60.39,173.61,60.39Z"/><path class="cls-6" d="M192.48,66.56c0,3.69-2,6.23-5.34,6.23-3.5,0-5.54-2.46-5.54-6.23s2.06-6.15,5.5-6.15S192.48,62.87,192.48,66.56Zm-8.93.06c0,2.69,1.28,4.54,3.46,4.54s3.52-1.8,3.52-4.62-1.21-4.5-3.37-4.5S183.55,63.8,183.55,66.62Z"/><path class="cls-6" d="M212.19,71.73c0,.58-.43.85-1,.85s-1-.27-1-.85V65c0-1.81-.51-2.82-2-2.82a2.83,2.83,0,0,0-2.38,1.44,3.8,3.8,0,0,0-.57,1.91v6.25c0,.58-.4.85-1,.85s-1-.27-1-.85V65c0-1.81-.53-2.82-2-2.82A2.7,2.7,0,0,0,199,63.55a3.77,3.77,0,0,0-.57,2v6.15c0,.58-.38.85-.93.85s-1-.27-1-.85V61.4c0-.55.41-.82,1-.82a.8.8,0,0,1,.91.82v.45a5.59,5.59,0,0,1-.15,1,3.51,3.51,0,0,1,3.5-2.44c1.87,0,2.89.85,3.16,2.31a3.76,3.76,0,0,1,3.74-2.31c2.5,0,3.5,1.5,3.5,4.09Z"/></g></g></svg>