<svg xmlns="http://www.w3.org/2000/svg" viewBox="0 0 216.31 319.79"><defs><style>.cls-1{fill:#ff848b;}.cls-2{fill:#414852;}</style></defs><title>mobile-hand</title><g id="圖層_2" data-name="圖層 2"><g id="圖層_7" data-name="圖層 7"><rect class="cls-1" x="21.45" y="61.34" width="40.71" height="35.51" rx="6.93" ry="6.93"/><rect class="cls-1" x="21.45" y="107.25" width="40.71" height="35.51" rx="6.93" ry="6.93"/><path class="cls-1" d="M53,170.29a17.59,17.59,0,0,1,0-14.94,16.88,16.88,0,0,1,1.34-2.19H28.38a6.93,6.93,0,0,0-6.93,6.93v21.65a6.93,6.93,0,0,0,6.93,6.93H55.23a6.68,6.68,0,0,0,3.84-1.32A125.44,125.44,0,0,0,53,170.29Z"/><path class="cls-1" d="M79.77,139A25.13,25.13,0,0,1,91.26,142V107.25h-10a6.93,6.93,0,0,0-6.93,6.93v21.65a6.73,6.73,0,0,0,1.19,3.66A21.61,21.61,0,0,1,79.77,139Z"/><path class="cls-1" d="M81.22,96.85h10V96A26.41,26.41,0,0,1,115,69.83V68.27a6.93,6.93,0,0,0-6.93-6.93H81.22a6.93,6.93,0,0,0-6.93,6.93V89.92A6.92,6.92,0,0,0,81.22,96.85Z"/><path class="cls-2" d="M105.22,282,91.34,268.35a27.28,27.28,0,0,1-2.6-2.91A13.31,13.31,0,0,1,90.52,272a13.72,13.72,0,1,1-3.11-8.56c-.44-.66-.91-1.28-1.32-2a130.72,130.72,0,0,1-12.4-17.82H10.28V46.08H143.61V90.53a26.06,26.06,0,0,1,.58,5.48v15.13c.73-.06,1.46-.09,2.2-.09a26.65,26.65,0,0,1,7.51,1.12V23.44A23.47,23.47,0,0,0,130.45,0h-107A23.46,23.46,0,0,0,0,23.44v256a23.46,23.46,0,0,0,23.46,23.46h81.76ZM56.79,17.08H97.1c1.13,0,2.09,1.39,2.09,3.08s-1,3.07-2.09,3.07H56.79c-1.16,0-2.06-1.33-2.06-3.07S55.63,17.08,56.79,17.08Z"/><path class="cls-2" d="M216.29,208.42a42.57,42.57,0,0,0-.15-5.18V165.76a12.6,12.6,0,1,0-25.2,0v2.89c-1.09-.42-2.2-.76-3.36-1.09v-19a12.61,12.61,0,1,0-25.21,0v10.87L159,158.29V137.52a12.61,12.61,0,1,0-25.22,0v16.09a25.31,25.31,0,0,0-3.44.82V96a12.61,12.61,0,0,0-25.21,0V200.13c-2.76-6-2.83-13.58-4.05-19.19-4.64-21.31-16.46-30-23.7-27.7-1.67.49-14.56,5.38-11.83,11.22C67.22,168.06,76,188.3,77,210.3c.74,15.7,10.6,31.34,20.66,43.37a17.54,17.54,0,0,0,3.42,4.8l18,17.72v43.6h84.76V275.05c6.56-10,10.75-22.35,11.25-33.5q.58-16.32,1.17-32.61a1.61,1.61,0,0,0,0-.31S216.29,208.5,216.29,208.42Z"/></g></g></svg>