<svg xmlns="http://www.w3.org/2000/svg" viewBox="0 0 392 391.98"><defs><style>.cls-1{fill:none;}.cls-2{fill:#f9ba48;}.cls-3{fill:#0072b1;}</style></defs><title>資產 5</title><g id="圖層_2" data-name="圖層 2"><g id="圖層_7" data-name="圖層 7"><polygon class="cls-1" points="12.64 164.36 31.61 164.36 31.62 164.36 31.62 69.52 12.64 69.52 12.64 164.36"/><path class="cls-1" d="M183.35,145.39H158.06a6.33,6.33,0,0,0,0,12.65h25.29a6.33,6.33,0,1,0,0-12.65Z"/><path class="cls-1" d="M183.35,107.46a6.33,6.33,0,1,0,0-12.65H174.2a22.28,22.28,0,0,1-14.27,12.65Z"/><path class="cls-1" d="M183.35,120.1H158.06a6.33,6.33,0,0,0,0,12.65h25.29a6.33,6.33,0,1,0,0-12.65Z"/><path class="cls-1" d="M175.94,82.17h7.41a6.32,6.32,0,1,0,0-12.64H169.94l1.3,1.62A22.77,22.77,0,0,1,175.94,82.17Z"/><path class="cls-1" d="M281.68,315.49l-51.13-17.94a6.88,6.88,0,0,0-8.87,4.51,6.91,6.91,0,0,0,3.36,8.08l35.34,18.78L235.43,341.4h-60L153.7,329.53a5.48,5.48,0,0,0-7.65,2.55,5.48,5.48,0,0,0,2.57,7.21l30.47,15,61.8,12.37h80.94l25.92-5.19V328.75H301.57Z"/><path class="cls-1" d="M133.25,80,146,92.8a10.38,10.38,0,0,0,13.49,1,10.32,10.32,0,0,0,1.87-14.71l-13.3-16.63L109,51.24,71.84,82.17H44.25v69.55H64.72L77.36,158H79.9l.24-.26c12.34-12.7,19.61-28.25,20.82-44.23l-3.74-4.68Z"/><rect class="cls-1" x="360.39" y="309.78" width="18.97" height="69.55"/><path class="cls-1" d="M187.89,328.72l11.39,0L193,312.88a5.11,5.11,0,0,0-8.59-1,4.86,4.86,0,0,0-.67,4.44Z"/><path class="cls-2" d="M106,37.25l49.41,14.13,4.4,5.5H182.5a48.7,48.7,0,0,0,7.18-25.49V15.81a15.81,15.81,0,1,0-31.61,0v6.32a3.17,3.17,0,0,1-6.33,0V15.81a15.81,15.81,0,1,0-31.61,0v6.32a3.16,3.16,0,1,1-6.32,0V15.81a15.81,15.81,0,0,0-31.62,0V31.39a48.54,48.54,0,0,0,5,21.52Z"/><path class="cls-2" d="M200.32,160.17a19,19,0,0,1-17,10.51H158.07a18.87,18.87,0,0,1-12.65-4.87V177h3.16a22.17,22.17,0,0,1,22.13,22.15v3.14H158.06v-3.14a9.51,9.51,0,0,0-9.48-9.51h-19a9.49,9.49,0,0,0,0,19h19a22.13,22.13,0,1,1,0,44.26h-3.16v12.64H132.77V252.88h-3.16a22.13,22.13,0,0,1-22.13-22.11v-3.18h12.65v3.18a9.48,9.48,0,0,0,9.48,9.46h19a9.49,9.49,0,0,0,0-19h-19a22.13,22.13,0,1,1,0-44.25h3.16V164.36H144a18.75,18.75,0,0,1,.06-25.28,18.68,18.68,0,0,1,0-25.29,16.31,16.31,0,0,1-4.73-10.2,21.54,21.54,0,0,1-2.24-1.85L132.31,97l-27.19,21.76L101,113.55c-1.21,16-8.48,31.53-20.82,44.23l-.24.26A82.43,82.43,0,0,0,71,169a81.39,81.39,0,0,0-14.1,47.47c.77,42.73,36.12,78.91,78.8,80.62,1.15.05,2.28.07,3.43.07a82.16,82.16,0,0,0,61.18-137Z"/><path class="cls-3" d="M145.42,265.48V252.93a0,0,0,0,1,0-.05H148c13,0,23.57-10.68,22.66-23.68a22.15,22.15,0,0,0-22.07-20.58H129.93a9.69,9.69,0,0,1-9.76-8.61,9.5,9.5,0,0,1,9.44-10.36h18.92a9.53,9.53,0,0,1,9.53,9.53v3.07a0,0,0,0,0,.05.05h12.55a0,0,0,0,0,.05-.05v-3a22.27,22.27,0,0,0-22.2-22.2h-3a0,0,0,0,1,0,0V165.91a0,0,0,0,1,.07,0,18.88,18.88,0,0,0,12.58,4.8h25.29a18.87,18.87,0,0,0,14.06-31.56.06.06,0,0,1,0-.06,18.7,18.7,0,0,0,0-25.24.06.06,0,0,1,0-.06,18.66,18.66,0,0,0,0-25.21s0,0,0-.06a18.81,18.81,0,0,0,4.7-15.42c-1.39-9.4-9.77-16.19-19.28-16.19h-23l0,0-4.38-5.47,0,0L106,37.25h0L87.2,52.91,67.28,69.51h-23a.05.05,0,0,1,0,0V56.92a0,0,0,0,0,0,0H.05a0,0,0,0,0,0,0V177a0,0,0,0,0,.05,0H44.21a0,0,0,0,0,0,0V164.41a.05.05,0,0,1,0,0H61.74L71,169a0,0,0,0,0,.06,0,83.68,83.68,0,0,1,8.79-10.84,0,0,0,0,0,0-.08H77.35l-12.62-6.31H44.3a.05.05,0,0,1,0-.05V82.21s0,0,0,0H71.82l0,0,37.09-30.89h0l39.08,11.17h0l13.29,16.62a10.32,10.32,0,0,1-1.87,14.71,10.38,10.38,0,0,1-13.49-1L133.28,80.07a0,0,0,0,0-.06,0l-36,28.78s0,0,0,.06l3.72,4.65,4.13,5.15s0,0,.06,0L132.27,97a0,0,0,0,1,.07,0l4.72,4.73a21.56,21.56,0,0,0,2.23,1.84,0,0,0,0,1,0,0,16.3,16.3,0,0,0,4.7,10.15s0,0,0,.06a18.69,18.69,0,0,0,0,25.23,0,0,0,0,1,0,.07,18.75,18.75,0,0,0-.1,25.17,0,0,0,0,1,0,.07H132.82a0,0,0,0,0,0,0V177a0,0,0,0,1-.05,0h-2.53c-13,0-23.57,10.68-22.65,23.69a22.15,22.15,0,0,0,22.07,20.56h18.65a9.68,9.68,0,0,1,9.76,8.62,9.49,9.49,0,0,1-9.44,10.35H129.66a9.56,9.56,0,0,1-9.53-9.53v-3.06a0,0,0,0,0,0,0H107.53a0,0,0,0,0,0,0v3.08a22.16,22.16,0,0,0,22.16,22.16h3.08a0,0,0,0,1,.05.05v12.55a0,0,0,0,0,0,0h12.55A0,0,0,0,0,145.42,265.48ZM31.62,164.36H12.69s0,0,0,0V69.57a.05.05,0,0,1,0,0H31.57a.05.05,0,0,1,.05,0ZM183.35,69.53a6.33,6.33,0,0,1,6.28,7.11,6.51,6.51,0,0,1-6.54,5.53H176a0,0,0,0,1,0,0,22.71,22.71,0,0,0-4.69-11l-1.3-1.62Zm-16.26,34.35a22.7,22.7,0,0,0,7.09-9,.05.05,0,0,1,0,0h8.86a6.51,6.51,0,0,1,6.54,5.52,6.34,6.34,0,0,1-6.28,7.13H160.23a0,0,0,0,1,0-.09A22.88,22.88,0,0,0,167.09,103.88Zm-9,16.22h25a6.51,6.51,0,0,1,6.54,5.53,6.34,6.34,0,0,1-6.28,7.12h-25a6.5,6.5,0,0,1-6.53-5.53A6.33,6.33,0,0,1,158.06,120.1Zm0,25.29h25a6.51,6.51,0,0,1,6.55,5.52,6.33,6.33,0,0,1-6.28,7.13h-25a6.49,6.49,0,0,1-6.53-5.53A6.33,6.33,0,0,1,158.06,145.39Z"/><path class="cls-3" d="M347.74,297.18v18.88a0,0,0,0,1-.05.05h-42.3L288,304.52h0l-53.28-18.9a19.56,19.56,0,0,0-25.17,12.77,19.58,19.58,0,0,0,9.53,22.91l13.53,7.18a0,0,0,0,1,0,.09l-19.68.07s0,0,0,0l-8.17-20.44a17.59,17.59,0,0,0-33,12.16l1.87,5.56a0,0,0,0,1-.07.05l-13.76-7.51A18.15,18.15,0,1,0,143,350.63l31.2,15.4h0L239,379.21h0l84,.12h0l24.6-4.92a0,0,0,0,1,.06,0v17.48a0,0,0,0,0,.05.05H392a0,0,0,0,0,0-.05V297.18a0,0,0,0,0,0,0H347.79A0,0,0,0,0,347.74,297.18ZM184.37,311.84a5.11,5.11,0,0,1,8.59,1l6.3,15.74a0,0,0,0,1,0,.06l-11.29,0s0,0,0,0l-4.18-12.41A4.86,4.86,0,0,1,184.37,311.84Zm163.34,49.67-25.88,5.18H240.88l-61.79-12.37h0l-30.46-15a5.51,5.51,0,0,1,.69-10.16,5.4,5.4,0,0,1,4.39.4l21.71,11.86h60L260.3,329a.06.06,0,0,0,0-.09L225,310.14a6.91,6.91,0,0,1-3.36-8.08,6.88,6.88,0,0,1,8.87-4.51l51.12,17.94h0l19.88,13.25H347.7a0,0,0,0,1,.05.05v32.66A0,0,0,0,1,347.71,361.51Zm31.6,17.82H360.43a0,0,0,0,1,0-.05V309.83a0,0,0,0,1,0-.05h18.88a0,0,0,0,1,.05.05v69.45A0,0,0,0,1,379.31,379.33Z"/></g></g></svg>