<svg xmlns="http://www.w3.org/2000/svg" viewBox="0 0 311.42 363.76"><defs><style>.cls-1{fill:#ff848b;}.cls-2{fill:#414852;}</style></defs><title>person-dollar</title><g id="圖層_2" data-name="圖層 2"><g id="圖層_7" data-name="圖層 7"><path class="cls-1" d="M206.22,153.37a105.2,105.2,0,1,0,105.2,105.19A105.19,105.19,0,0,0,206.22,153.37Zm0,183.83a78.64,78.64,0,1,1,78.64-78.64A78.64,78.64,0,0,1,206.22,337.2Z"/><path class="cls-2" d="M128.58,34.68c0,19.14-12.56,34.68-28.07,34.68S72.43,53.82,72.43,34.68,85,0,100.51,0,128.58,15.51,128.58,34.68Z"/><path class="cls-2" d="M92.53,258.55a113.64,113.64,0,0,1,105-113.31c.62-11.65,1.58-29.33,1.38-25.8l-.05,0-.85-.63-3.36-2.49-6.72-5-13.45-10L147.61,81.44A18.2,18.2,0,0,0,138.35,78c-.18,0-.34-.11-.53-.13-4.6-.56-9.16-.9-13.72-1.26L124,77l12,10.16-14.38,7.22,6.65,11.4L110,146.25,107,90.51l2.65-2.24-3.5-12.59H94.83L91.34,88.27,94,90.5l-2.92,55.74L72.71,105.76l6.66-11.4L65,87.14,77,77l-.11-.4c-4.56.36-9.12.7-13.72,1.26a4.85,4.85,0,0,0-1.28.34,18.69,18.69,0,0,0-12.19,6L2.7,134.9l-.18.19,0,.06C-2,175.6,1.22,146.38.22,155.42v0l.07.13.24.47L1,157l1,1.93,2,3.86,3.91,7.71,7.82,15.43L31.34,216.8c7.15-3.56,14.2-7.32,21.19-11.17-.11,6.55-.33,13.1-.41,19.65,0,.31.09.55.1.85h3.72l4.2,134.07H98.37c.52-17.52.67-40.93.64-63.82A113.43,113.43,0,0,1,92.53,258.55ZM146.6,131c-.12-3.13-.27-6.25-.38-9.38l7.45,6.21,3.6,3-33.63,19.69-3.17-4.7ZM53.15,175.78l-4.46-7.73-8.66-15L37.5,148.7,54.64,128Q53.77,151.9,53.15,175.78Z"/><path class="cls-2" d="M105,310.26l1.57,49.94h38.22c.06-1.9.11-3.92.16-5.94A114.09,114.09,0,0,1,105,310.26Z"/><path class="cls-1" d="M213.45,245.31c-10.9-3.92-15.34-6.71-15.34-10.77,0-3.56,2.67-7.22,10.9-7.22a39.75,39.75,0,0,1,18.26,4.43l3.8-14.31a46.37,46.37,0,0,0-18.5-4.2V202.09H200.15v12c-13.56,2.53-21.43,11.28-21.43,22.56,0,12.3,9.26,18.62,22.81,23.18,9.51,3.17,13.57,6.22,13.57,11s-4.95,7.85-12.3,7.85a44.67,44.67,0,0,1-21-5.57L178,288c4.83,2.66,13.07,5.06,21.56,5.45v12h12.55V292.46c14.56-2.42,22.43-12.06,22.43-23.32C234.49,257.6,228.53,250.64,213.45,245.31Z"/></g></g></svg>