<svg xmlns="http://www.w3.org/2000/svg" viewBox="0 0 275.01 368.2"><defs><style>.cls-1{fill:#414852;}.cls-2{fill:#ff848b;}</style></defs><title>person-chat</title><g id="圖層_2" data-name="圖層 2"><g id="圖層_7" data-name="圖層 7"><path class="cls-1" d="M235.37,196.37c9.17,0,16.58-9.19,16.58-20.5s-7.41-20.49-16.58-20.49-16.59,9.19-16.59,20.49S226.21,196.37,235.37,196.37Z"/><path class="cls-1" d="M267.14,210.55a9.77,9.77,0,0,0-9.14-8.94,3.18,3.18,0,0,0-.58-.23c-2.72-.34-5.42-.54-8.11-.75l-.06.24,7.1,6-8.49,4.26,3.93,6.73L241,241.75,239.23,208l1.56-1.35-2.07-7.56H232L230,206.69l1.55,1.35-1.75,33.74-10.82-23.91,3.94-6.73-8.5-4.26,7.11-6-.05-.24c-2.7.21-5.4.41-8.11.75-.1,0-.18.08-.28.1a9.94,9.94,0,0,0-8.86,6.83c-6.87,25.36-16.61,45.44-29.7,69.36q10.35,5.38,21,10c4-8.25,8.07-17.22,11.82-26.54-.22,9.12-.46,18.22-.58,27.34,0,.16.06.31.07.5H209l2.49,79.2h22.58c.69-23.11.26-63.61.07-79.2h2.28L239,368.2h22.59c.68-23.07.27-63.43.06-79.11l1.79-.09h.5s0,0,0-.06c3.71-.28,7.41-.59,11.11-1Z"/><path class="cls-1" d="M59.4,196.37c9.15,0,16.58-9.19,16.58-20.5s-7.43-20.49-16.58-20.49-16.6,9.19-16.6,20.49S50.24,196.37,59.4,196.37Z"/><path class="cls-1" d="M120.9,192.33v-.43l0-.63,0-1.29-.06-2.55-.13-5.12-.28-10.2-.54-20.44q-11.65.21-23.27,1.26l1.67,20.38.84,10.19.24,3L71.54,199.41l8.83,7.47-8.49,4.26,3.92,6.73L65,241.75,63.25,208l1.56-1.35-2.07-7.56H56L54,206.69,55.53,208l-1.74,33.74L43,217.87l3.94-6.73-8.49-4.26,7.1-6-.07-.29c-2.69.2-5.38.46-8.1.8-.16,0-.31.15-.47.19a11,11,0,0,0-7.49,3.53l-27.79,30-.1.13,0,0c-2.69,23.89-.75,6.64-1.34,12h0l0,.07.14.29.29.56.58,1.14,1.16,2.28,2.3,4.55,4.63,9.12,9.24,18.24c4.23-2.11,8.39-4.34,12.52-6.61-.06,3.88-.19,7.76-.24,11.63,0,.16.06.31.06.5h2.2l2.48,79.2h22.6c.68-23.11.26-63.61.06-79.2h2.28L63,368.2H85.55c.69-23.11.27-63.61.07-79.2h2.29a4.61,4.61,0,0,0,.07-.5q-.47-37.23-2.13-74.41l28.53-11.44.15-.06,0,0C127.22,182.12,118.07,196.9,120.9,192.33ZM31.41,259.24l-2.64-4.56-5.12-8.84-1.49-2.58L32.29,231Q31.78,245.14,31.41,259.24Z"/><path class="cls-1" d="M117.11,98.59l-1.17-.31H115c-1.28,0-3.84,0-17.34,7.13l4.6-13-4.05-2.76c-12.6-8.55-19.52-20-19.52-32.27,0-24.64,28-44.67,62.35-44.67,18.7,0,35.47,6,46.9,15.32,2.85-.26,5.72-.43,8.66-.43s5.94.18,8.86.44C192.33,11.3,168.41,0,141,0,99.65,0,66,25.74,66,57.39c0,14.93,7.62,29.24,21.08,39.85l-12.77,36,14.93-8.57c9.73-5.59,21.67-12,25.69-13.45a93.35,93.35,0,0,0,17.28,3.13,50.57,50.57,0,0,1-7.85-14Q120.65,99.63,117.11,98.59Z"/><path class="cls-2" d="M265.3,85c0-28.15-30.74-51-68.7-51s-68.73,22.84-68.73,51,30.77,51,68.73,51a89.43,89.43,0,0,0,25.78-3.71c2.65-.82,29.2,14.46,29.2,14.46L243,122.53C256.67,113.22,265.3,99.87,265.3,85Zm-31.82,16.45H162.59V94.78h70.89Zm0-13.3H162.59V81.48h70.89Zm0-13.29H162.59V68.2h70.89Z"/></g></g></svg>