<svg xmlns="http://www.w3.org/2000/svg" viewBox="0 0 52.55 55.63"><defs><style>.cls-1{fill:#fff;}.cls-2{fill:#f7b52c;}.cls-3{fill:#e95513;}</style></defs><title>sheild-color</title><g id="圖層_2" data-name="圖層 2"><g id="圖層_7" data-name="圖層 7"><path d="M47.31,25.37c0-.17-.23-15.31-.28-15.62-.18-1.23-.74-1.13-1.1-1.12A28.76,28.76,0,0,1,36.31,8c-6-1.72-9.89-6.36-11.86-6.4h0c-2,0-5.9,4.68-11.85,6.4A28.81,28.81,0,0,1,3,8.63c-.35,0-.92-.11-1.1,1.12,0,.31-.27,15.45-.27,15.62C1.58,40.14,19.82,54,24.43,54.05h0C29.06,54,47.31,40.14,47.31,25.37Z"/><path class="cls-1" d="M24.44,55.63C19,55.58,0,40.86,0,25.37,0,25.23.22,10,.29,9.52.53,7.87,1.48,7,3,7.06a27.47,27.47,0,0,0,9.14-.59A26.06,26.06,0,0,0,20,2.25C21.71,1,23,.09,24.28,0a1.49,1.49,0,0,1,.42,0c1.1,0,2.41.94,4.22,2.23a26.19,26.19,0,0,0,7.83,4.22,26.53,26.53,0,0,0,8.86.6,2.58,2.58,0,0,1,3,2.46c.07.47.3,15.7.3,15.84,0,15.39-18.7,30-24.31,30.25Zm-21-45.4c-.1,2.61-.28,14.32-.29,15.15,0,13.82,17.49,27.06,21.29,27.1h.06c3.92-.17,21.23-13.36,21.23-27.11,0-.83-.19-12.85-.25-15.14a28.62,28.62,0,0,1-9.61-.74A29.12,29.12,0,0,1,27.1,4.82a12.35,12.35,0,0,0-2.68-1.66,14,14,0,0,0-2.63,1.65A28.85,28.85,0,0,1,13,9.49,28.63,28.63,0,0,1,3.44,10.23Z"/><path class="cls-2" d="M47.31,25.37c0-.17-.23-15.31-.28-15.62-.18-1.23-.74-1.13-1.1-1.12A28.76,28.76,0,0,1,36.31,8c-6-1.72-9.89-6.36-11.86-6.4h0c-2,0-5.9,4.68-11.85,6.4A28.81,28.81,0,0,1,3,8.63c-.35,0-.92-.11-1.1,1.12,0,.31-.27,15.45-.27,15.62C1.58,40.14,19.82,54,24.43,54.05h0C29.06,54,47.31,40.14,47.31,25.37Z"/><path d="M41.05,49.94a1.29,1.29,0,0,1-1.68.16l-7.95-5.88a1.12,1.12,0,0,1-.23-1.57l1-1.36a1.15,1.15,0,0,1,1.59-.23l5.1,3.74a1.31,1.31,0,0,0,1.68-.16l7.2-7.53a1.13,1.13,0,0,1,1.6-.06l1.24,1.15a1.15,1.15,0,0,1,.06,1.6Z"/><path class="cls-1" d="M40.11,51.91a2.8,2.8,0,0,1-1.67-.54l-7.95-5.88a2.68,2.68,0,0,1-.55-3.79l1-1.35a2.71,2.71,0,0,1,3.78-.56l4.88,3.58,7-7.35a2.7,2.7,0,0,1,3.81-.13l1.24,1.16a2.71,2.71,0,0,1,.14,3.82L42.2,51A2.85,2.85,0,0,1,40.11,51.91Zm-7.38-8.68,7.36,5.44,9.13-9.62-.59-.55-6.91,7.23a2.88,2.88,0,0,1-3.75.34l-4.75-3.49Z"/><path class="cls-3" d="M41.05,49.94a1.29,1.29,0,0,1-1.68.16l-7.95-5.88a1.12,1.12,0,0,1-.23-1.57l1-1.36a1.15,1.15,0,0,1,1.59-.23l5.1,3.74a1.31,1.31,0,0,0,1.68-.16l7.2-7.53a1.13,1.13,0,0,1,1.6-.06l1.24,1.15a1.15,1.15,0,0,1,.06,1.6Z"/><path class="cls-1" d="M29.68,22a5.23,5.23,0,1,0-6.17,5.14v3H20.34V32h3.17v3.44H20.17V37.3H25.4V27.14A5.24,5.24,0,0,0,29.68,22Zm-5.23,3.34A3.34,3.34,0,1,1,27.79,22,3.35,3.35,0,0,1,24.45,25.34Z"/></g></g></svg>