<svg xmlns="http://www.w3.org/2000/svg" xmlns:xlink="http://www.w3.org/1999/xlink" viewBox="0 0 259.42 235.91"><defs><style>.cls-1,.cls-9{fill:none;}.cls-2{fill:#0dac67;}.cls-3{fill:#f6dee0;}.cls-4{fill:#dea4aa;}.cls-5{fill:#717171;}.cls-6{opacity:0.3;}.cls-7{clip-path:url(#clip-path);}.cls-8{clip-path:url(#clip-path-2);}.cls-9{stroke:#717171;stroke-linecap:round;stroke-linejoin:round;stroke-width:2px;}.cls-10{fill:#6a3906;}.cls-11{fill:#f8d1dc;}.cls-12{clip-path:url(#clip-path-3);}</style><clipPath id="clip-path"><rect class="cls-1" x="168.61" y="125.67" width="35.6" height="35.6" transform="translate(-9.04 12.58) rotate(-3.77)"/></clipPath><clipPath id="clip-path-2"><rect class="cls-1" x="55.35" y="143.05" width="32.91" height="29.27" transform="translate(-94.05 207.8) rotate(-82.33)"/></clipPath><clipPath id="clip-path-3"><path class="cls-1" d="M188.85,170.73,174.42,194.5s34.37,38,57.29,35.22c26.73-3.22,19.72-30.7,9.75-37.7S216.86,177.74,188.85,170.73Z"/></clipPath></defs><title>icon_02</title><g id="圖層_2" data-name="圖層 2"><g id="圖層_7" data-name="圖層 7"><path class="cls-2" d="M74.05,50q3.26,16-4.75,28.89Q61.13,92,45.17,95.25T16.62,89.53Q4.16,80.79.93,64.9T5.73,36q8.2-13.26,24-16.48t28.52,5.79Q70.83,34.19,74.05,50ZM54.6,53.88a19.72,19.72,0,0,0-7.33-12.13,16,16,0,0,0-13.61-3.1A15.9,15.9,0,0,0,22.6,47a19.73,19.73,0,0,0-2.24,14,19.57,19.57,0,0,0,7.23,12.14A16.22,16.22,0,0,0,41.26,76a16.12,16.12,0,0,0,11.13-8.3A19.43,19.43,0,0,0,54.6,53.88Z"/><path class="cls-2" d="M151.52,68.66a2.79,2.79,0,0,1-1.31,3.26q-1.43.83-8,2.16a60.48,60.48,0,0,1-9.33,1.37,6.1,6.1,0,0,1-1.93-.17,4.5,4.5,0,0,1-1.4-1.24q-5.15-6.11-10.23-12.23Q111,52,109.56,51.09q-5.13,3.12-5,4,.8,3.86,2.67,11.56T110,78.24a1.58,1.58,0,0,1-1,2.07,76.13,76.13,0,0,1-9.56,2.38,60.73,60.73,0,0,1-8.91,1.38,1.61,1.61,0,0,1-1.81-1.29Q87.54,77.25,85.8,66T82.93,49.08q-1.2-6-4.14-17.77T74.64,13.55a1,1,0,0,1,.85-1.35c1.06-.21,2.67-.49,4.82-.82s3.77-.6,4.83-.82S87.85,10,90,9.42s3.73-.92,4.79-1.14c.58-.12.93.13,1.06.75q.77,3.8,1.94,11.54t2,11.53q.9,4.41,3.3,3.92,6.11-1.23,8.81-5.26,2-3,3.26-10,.61-5.31,2.4-15.76a2.29,2.29,0,0,1,2-1.75c.89-.18,2.25-.41,4.06-.67s3.17-.48,4.06-.66,2.29-.5,4.1-.94,3.17-.76,4.06-.94a1.09,1.09,0,0,1,1.47.93q.34,1.7-.47,8.7-2.43,20.67-9.7,27.17c-1,.88-1.45,1.52-1.37,1.93t12.59,13.46Q150.93,65.75,151.52,68.66Z"/><path class="cls-3" d="M235.31,87h0a128.23,128.23,0,0,0-3.22-21.88A3.29,3.29,0,0,0,229,62.55c-15.53-.61-43.74,13.29-43.74,13.29-3.51,29.21,10.43,40,21.22,44.06v-5.32S205.33,89.65,235.31,87"/><path class="cls-3" d="M44.21,80.79a3,3,0,0,0-2.47,2.71c-.9,9.75-3.09,49.13,20.1,50.17,0,0,34.87-5,23.84-46.43,0,0-27.43-9-41.47-6.45"/><path class="cls-4" d="M235.31,87h0c-30,2.67-28.81,27.6-28.81,27.6v5.32a37,37,0,0,0,11.59,2.37c15.38-2.88,18-20.11,17.23-35.29"/><path class="cls-3" d="M41.63,103.81h0a118.41,118.41,0,0,1,.11-20.31,3,3,0,0,1,2.47-2.71c14-2.55,41.47,6.45,41.47,6.45C92.63,113.34,81.36,125,72.07,130l-.69-4.84s-2.15-22.81-29.75-21.37"/><path class="cls-4" d="M41.63,103.81h0c27.6-1.44,29.75,21.37,29.75,21.37l.69,4.84a34.11,34.11,0,0,1-10.23,3.65c-14.35-.64-19-16-20.21-29.86"/><path class="cls-3" d="M133.46,71.09l-.51.66-.63-.55C44,89.11,52.65,175.6,52.65,175.6,56.84,217.7,98.47,233.94,148,229s88.31-29.18,84.12-71.28c0,0-8.55-86.5-98.7-86.63"/><path class="cls-3" d="M193.67,90.43c1.73,17.44-23.22,34.21-55.75,37.45s-60.29-8.28-62-25.72S99.11,68,131.63,64.71s60.3,8.27,62,25.72"/><path class="cls-3" d="M188.55,198.84c1.74,17.45-19.67,33.86-47.8,36.66S88.39,226.44,86.65,209s19.67-33.85,47.8-36.66,52.36,9.07,54.1,26.51"/><line class="cls-3" x1="65.85" y1="110.85" x2="139.02" y2="110.85"/><line class="cls-3" x1="138.4" y1="110.85" x2="211.56" y2="110.85"/><path class="cls-4" d="M145.69,139l-.82-.19a19.22,19.22,0,0,1-6.87-3.43,21.78,21.78,0,0,0-29.85,4,19.22,19.22,0,0,1-5.72,5.12c-.25.13-.5.26-.74.4a19.2,19.2,0,0,0,12.17,35.65,19.55,19.55,0,0,0,5.5-1.6h0a37.28,37.28,0,0,1,18.33-2.47h0a19.2,19.2,0,0,0,8-37.51m-33.6,28.41a5.92,5.92,0,1,1,5.08-6.66,5.92,5.92,0,0,1-5.08,6.66m29.59-4h-.08A5.92,5.92,0,1,1,140,151.72h.08a5.92,5.92,0,1,1,1.58,11.73"/><path class="cls-4" d="M144.08,181.78a38.81,38.81,0,0,1-26.25,4.09,2.59,2.59,0,0,0-3.11,2.79c.5,5.85,3.51,16.48,18.91,14.15,15.89-2.4,15.52-13.6,14.22-19.3a2.59,2.59,0,0,0-3.77-1.73"/><path class="cls-5" d="M103.93,130.42c1.2,4.54-.62,9-4.06,9.85s-7.2-2-8.39-6.56.62-9,4.06-9.85,7.2,2,8.39,6.56"/><g class="cls-6"><g class="cls-7"><path class="cls-4" d="M204.17,142.3a17.8,17.8,0,1,1-18.93-16.59,17.8,17.8,0,0,1,18.93,16.59"/></g></g><g class="cls-6"><g class="cls-8"><path class="cls-4" d="M86.3,159.63c-1.21,9-8.68,15.44-16.69,14.36s-13.52-9.25-12.3-18.26S66,140.29,74,141.37s13.52,9.25,12.3,18.26"/></g></g><path class="cls-4" d="M145.07,97.56c-6.74-3.48-12.36,3.43-14.18,6a2.15,2.15,0,0,0-.24,2v0c.12.3,1.19,2.26,8.92-.37l5.23-1.76a2.14,2.14,0,0,0,1.46-2.18l-.13-2a2.07,2.07,0,0,0-1.07-1.72"/><path class="cls-4" d="M94.29,101.89c6.23-4.33,12.72,1.78,14.85,4.12a2.16,2.16,0,0,1,.51,1.9l0,0c-.07.3-.88,2.39-8.89.8l-5.41-1.06a2.14,2.14,0,0,1-1.74-2l-.13-2a2.07,2.07,0,0,1,.83-1.85"/><polyline class="cls-9" points="152.68 120.67 142.47 128.23 154.36 130.44"/><path class="cls-10" d="M162.89,182a1.35,1.35,0,0,1,.28-.3l.06,0,8.8-5.81a.62.62,0,0,0,.17-.11,1.11,1.11,0,0,0,.21-.22,1.43,1.43,0,0,0,.24-.71.76.76,0,0,0,0-.15s0,0,0,0l-1.7-6.85s-.11-.46-.11-.46a1.53,1.53,0,0,1,.27-.84c.31-.45.67-.56,1.37-.45A85.2,85.2,0,0,1,189,170.84S186.4,186.26,175.9,196c0,0-7.67-7.57-12.62-11.64h0l-.12-.1A1.82,1.82,0,0,1,162.89,182Z"/><path class="cls-11" d="M188.85,170.73,174.42,194.5s34.37,38,57.29,35.22c26.73-3.22,19.72-30.7,9.75-37.7S216.86,177.74,188.85,170.73Z"/><g class="cls-12"><path class="cls-3" d="M257,195.38c-7.45,14.41-30.16,17.45-50.71,6.8s-31.17-31-23.71-45.35,30.17-17.45,50.72-6.8S264.5,181,257,195.38Z"/></g></g></g></svg>