<svg xmlns="http://www.w3.org/2000/svg" xmlns:xlink="http://www.w3.org/1999/xlink" viewBox="0 0 287.48 233.27"><defs><style>.cls-1{fill:none;}.cls-2{fill:#f7b52c;}.cls-3{fill:#f9dbe1;}.cls-4{fill:#6a3906;}.cls-5{clip-path:url(#clip-path);}.cls-6{fill:#f8d1dc;}.cls-7{clip-path:url(#clip-path-2);}.cls-8{fill:#f6dee0;}.cls-9{fill:#dea4aa;}.cls-10{fill:#717171;}.cls-11{opacity:0.3;}.cls-12{clip-path:url(#clip-path-3);}.cls-13{clip-path:url(#clip-path-4);}</style><clipPath id="clip-path"><path class="cls-1" d="M86.17,144s-26-13.2-72.18-8.07l-1.24,25s40.58,6.2,71.25,35.68Z"/></clipPath><clipPath id="clip-path-2"><path class="cls-1" d="M201.31,144s26-13.2,72.18-8.07l1.24,25s-40.58,6.2-71.25,35.68Z"/></clipPath><clipPath id="clip-path-3"><rect class="cls-1" x="180.7" y="129.02" width="31.69" height="31.69"/></clipPath><clipPath id="clip-path-4"><rect class="cls-1" x="75.1" y="129.02" width="31.69" height="31.69"/></clipPath></defs><title>icon_01</title><g id="圖層_2" data-name="圖層 2"><g id="圖層_7" data-name="圖層 7"><path class="cls-2" d="M121.76,33.55a8.48,8.48,0,0,1-.79,3.78,164.87,164.87,0,0,1-17.82,27.53,6.62,6.62,0,0,0-1.59,3.83q0,2.67.35,8t.35,8c0,.6-.13,1-.4,1.1a11.37,11.37,0,0,1-1.36.26,76.94,76.94,0,0,1-9.06.36,83.67,83.67,0,0,1-9.31-.26c-.94-.13-1.41-.61-1.42-1.45q0-2.67.41-8.13t.41-8.18a6.48,6.48,0,0,0-1.23-3.47q-6.14-8.56-17.56-26.27a6.89,6.89,0,0,1-1.17-3.22q0-3-.35-9.06c-.23-4-.34-7-.35-9,0-1.11.32-1.67,1-1.67,2,0,5.16.05,9.32.2s7.28.21,9.36.2c.77,0,1.16.24,1.16.75,0,1.71,0,4.28-.18,7.73s-.2,6-.19,7.72q0,1.51,4.47,7.53,3.56,4.71,5.83,7.26,2.06-2.41,5.45-7.27,4.29-6.07,4.29-7.32,0-2.52-.42-7.63t-.42-7.62c0-.71.14-1.11.44-1.21h1.26c2,0,5-.12,9.08-.33s7.09-.31,9.14-.32c.67,0,1,.71,1,2.16,0,1.77.06,4.45.14,8S121.75,31.74,121.76,33.55Z"/><path class="cls-2" d="M179,51.78a67.39,67.39,0,0,1,1.22,7.9c.49,4.21.62,6.77.37,7.67a1.88,1.88,0,0,1-1.36,1.35,11.12,11.12,0,0,1-1.5.24q-3.67.47-20.85,5-3.74,1-11.15,2.92t-11.1,2.9c-1.07.29-1.73,0-2-1q-1.45-5.44-3.75-16.53t-3.75-16.53q-1.47-5.53-6.09-20.51-1.18-3.85-3.63-11.48l-.23-.67c-.26-.73,0-1.21.92-1.44q3.6-1,10.87-2.69t10.88-2.69q3.54-.95,10.65-3t10.64-3c1.69-.45,2.83-.07,3.43,1.12.36.71,1.21,2.9,2.56,6.59s2.12,5.93,2.34,6.74a.91.91,0,0,1-.7,1.28c-.19.06-.54.13-1,.23q-13.23,2.37-23.54,5.12c-1.72.46-2.66,1.14-2.84,2.06a16.56,16.56,0,0,0,.76,3.81q.88,3.3,2.14,4.11c.71.47,1.85.5,3.4.09.33-.09,1-.28,1.88-.58s1.7-.53,2.32-.7q6.12-1.62,12.31-3.64l2.61-.95a23.52,23.52,0,0,1,2.57-.9,1,1,0,0,1,1.47.81q-.27-1,1.11,7.67c.43,2.67,1,5.29,1.68,7.89.17.65-.21,1.1-1.15,1.35L166,43q-2.85.43-12.72,3.07l-5.16,1.37c-1.33.36-2,.89-2.07,1.6q0,.26.75,3a15,15,0,0,0,1.75,4.63q1.32,1.64,6.81.53l7.1-1.89c1.72-.45,4.23-1.29,7.54-2.5s5.8-2,7.49-2.49C178.16,50.12,178.68,50.61,179,51.78Z"/><path class="cls-2" d="M211.85,65.6Q210.23,75.68,200,81.45a40.38,40.38,0,0,1-20.62,5c-.28,0-.52,0-.69-.06q-1.22-.19-4.29-7.85c-2-5.1-3-8.16-2.82-9.19q.09-.56.9-.57a59.52,59.52,0,0,0,10.61-1.16q5.92-1.71,6.73-6.78c.34-2.15-.47-4.74-2.45-7.78q-5.16-7.76-5.58-8.58a19.71,19.71,0,0,1-1.83-12q1.45-9.09,11.36-13.68a42.23,42.23,0,0,1,19-3.6,8.89,8.89,0,0,1,.91.1c.53.08.89.55,1.08,1.39a143.31,143.31,0,0,0,4.31,14.14,1,1,0,0,1,.08.53q-.14.84-1.08.69a9.69,9.69,0,0,1-1.41-.38,13.08,13.08,0,0,0-1.51-.39,13.38,13.38,0,0,0-6.93.57q-3.75,1.35-4.29,4.72c-.32,2,.55,4.71,2.63,8.07,3.63,6,5.54,9.17,5.7,9.47A19.42,19.42,0,0,1,211.85,65.6Z"/><path class="cls-3" d="M86.17,144s-26-13.2-72.18-8.07l-1.24,25s40.58,6.2,71.25,35.68Z"/><path class="cls-4" d="M15.22,135.86A77.84,77.84,0,0,0,.76,139.12,1.25,1.25,0,0,0,0,140.24a1.57,1.57,0,0,0,.17.78h0l.08.14,4.23,6.68h0a.41.41,0,0,1,.07.11,1.23,1.23,0,0,1,.13.66,1.15,1.15,0,0,1-.06.28.48.48,0,0,1-.07.18L.62,158.54a.08.08,0,0,0,0,.06,1.24,1.24,0,0,0-.09.38,1.31,1.31,0,0,0,1.19,1.48c5.67-.09,12.19.42,12.19.42v0C15,156.49,16,144.08,15.22,135.86Z"/><g class="cls-5"><ellipse class="cls-6" cx="86.17" cy="173.71" rx="50.79" ry="43.69"/></g><path class="cls-3" d="M201.31,144s26-13.2,72.18-8.07l1.24,25s-40.58,6.2-71.25,35.68Z"/><path class="cls-4" d="M272.26,135.86a77.84,77.84,0,0,1,14.46,3.26,1.25,1.25,0,0,1,.76,1.12,1.38,1.38,0,0,1-.17.78h0l-.08.14L283,147.84h0l-.07.11a1.33,1.33,0,0,0-.13.66,1.15,1.15,0,0,0,.06.28.75.75,0,0,0,.07.18l3.94,9.46,0,.06a1.61,1.61,0,0,1,.08.38,1.3,1.3,0,0,1-1.18,1.48c-5.68-.09-12.2.42-12.2.42v0C272.53,156.49,271.44,144.08,272.26,135.86Z"/><g class="cls-7"><ellipse class="cls-6" cx="201.31" cy="173.71" rx="50.79" ry="43.69"/></g><path class="cls-8" d="M235.69,95.91h0a120.84,120.84,0,0,0-3-20.54A3.11,3.11,0,0,0,229.78,73c-14.57-.57-41.05,12.47-41.05,12.47-3.29,27.42,9.79,37.57,19.92,41.34v-5s-1.1-23.39,27-25.89"/><path class="cls-8" d="M57.7,73a3.11,3.11,0,0,0-2.88,2.39C52.51,85.11,44.64,124.65,68,129c0,0,36-.06,30.79-43.57,0,0-26.47-13-41-12.47"/><path class="cls-9" d="M235.69,95.91h0c-28.14,2.5-27,25.89-27,25.89v5A35,35,0,0,0,219.52,129c14.43-2.7,16.92-18.87,16.17-33.11"/><path class="cls-8" d="M51.79,95.91h0a120.61,120.61,0,0,1,3-20.54A3.1,3.1,0,0,1,57.7,73c14.58-.57,41.05,12.47,41.05,12.47C102,112.87,89,123,78.84,126.79v-5s1.1-23.39-27-25.89"/><path class="cls-9" d="M51.79,95.91h0c28.14,2.5,27,25.89,27,25.89v5A35,35,0,0,1,68,129c-14.42-2.7-16.91-18.87-16.17-33.11"/><path class="cls-8" d="M144.28,79.09l-.53.57-.55-.57c-84.14,8.51-84.08,90.06-84.08,90.06,0,39.7,37.35,58.73,84.08,58.73s85.17-19,85.17-58.73c0,0,.06-81.55-84.09-90.06"/><path class="cls-8" d="M198.69,102.75c0,16.44-24.86,29.78-55.52,29.78s-55.52-13.34-55.52-29.78S112.5,73,143.17,73s55.52,13.34,55.52,29.79"/><path class="cls-8" d="M191.78,203.49c0,16.45-21.51,29.78-48,29.78s-48-13.33-48-29.78,21.5-29.78,48-29.78,48,13.33,48,29.78"/><line class="cls-8" x1="75.1" y1="116.71" x2="143.75" y2="116.71"/><line class="cls-8" x1="143.17" y1="116.71" x2="211.81" y2="116.71"/><path class="cls-9" d="M164.57,139l-.74-.28a17.81,17.81,0,0,1-6-4.05,20.45,20.45,0,0,0-28.27,0,17.86,17.86,0,0,1-6,4.05l-.73.28a18,18,0,0,0,12.16,33.87h0a34.76,34.76,0,0,1,17.35,0h0A18,18,0,0,0,164.57,139m-34.8,22.22a5.56,5.56,0,1,1,5.56-5.56,5.56,5.56,0,0,1-5.56,5.56m28,0h-.07a5.56,5.56,0,0,1,0-11.12h.07a5.56,5.56,0,1,1,0,11.12"/><path class="cls-9" d="M156.22,176.57a36.36,36.36,0,0,1-24.93.11,2.43,2.43,0,0,0-3.27,2.15c-.36,5.5.94,15.79,15.55,15.79,15.09,0,16.31-10.44,15.91-15.91a2.44,2.44,0,0,0-3.26-2.14"/><path class="cls-10" d="M124.85,125.64c.84,4.32-1.13,8.33-4.41,9s-6.61-2.35-7.45-6.66,1.14-8.34,4.41-9,6.62,2.35,7.45,6.67"/><path class="cls-10" d="M174.62,127.46c-.49,4.37-3.57,7.62-6.89,7.25s-5.61-4.22-5.12-8.59,3.57-7.61,6.89-7.24,5.61,4.21,5.12,8.58"/><g class="cls-11"><g class="cls-12"><path class="cls-9" d="M212.39,144.86A15.85,15.85,0,1,1,196.55,129a15.85,15.85,0,0,1,15.84,15.84"/></g></g><g class="cls-11"><g class="cls-13"><path class="cls-9" d="M106.78,144.86A15.84,15.84,0,1,1,90.94,129a15.85,15.85,0,0,1,15.84,15.84"/></g></g><path class="cls-9" d="M165.6,101.73c-6.1-3.68-11.79,2.45-13.65,4.77a2,2,0,0,0-.35,1.81v0c.09.28,1,2.19,8.37.2l5-1.32a2,2,0,0,0,1.5-2v-1.87a2,2,0,0,0-.89-1.68"/><path class="cls-9" d="M120.73,101.73c6.1-3.68,11.8,2.45,13.65,4.77a2,2,0,0,1,.36,1.81v0c-.09.28-1,2.19-8.38.2l-5-1.32a2,2,0,0,1-1.51-2v-1.87a2,2,0,0,1,.89-1.68"/></g></g></svg>