<svg xmlns="http://www.w3.org/2000/svg" viewBox="0 0 231.74 200.86"><defs><style>.cls-1{fill:#f8e0e2;}.cls-2{fill:#e5a8ae;}.cls-3{fill:#ff848b;}.cls-4{fill:#727171;}.cls-5{opacity:0.3;}.cls-6{fill:none;}.cls-7{fill:#9fa0a0;}.cls-8{fill:#0072b1;}.cls-9{fill:#15afe5;}</style></defs><title>icon_06</title><g id="圖層_2" data-name="圖層 2"><g id="圖層_7" data-name="圖層 7"><path class="cls-1" d="M215.17,26.82h0a141.24,141.24,0,0,0-3.54-24A3.62,3.62,0,0,0,208.26,0c-17-.67-48,14.58-48,14.58-3.84,32.05,11.45,43.93,23.29,48.34V57.1S182.27,29.75,215.17,26.82Z"/><path class="cls-1" d="M7.05,0A3.62,3.62,0,0,0,3.68,2.81C1,14.19-8.22,60.43,19.05,65.54c0,0,42.1-.07,36-50.94C55.05,14.6,24.09-.65,7.05,0Z"/><path class="cls-2" d="M215.17,26.82h0c-32.9,2.93-31.62,30.28-31.62,30.28v5.84a40.53,40.53,0,0,0,12.71,2.6C213.13,62.38,216,43.48,215.17,26.82Z"/><path class="cls-1" d="M.14,26.82h0a141.24,141.24,0,0,1,3.54-24A3.62,3.62,0,0,1,7.05,0c17-.67,48,14.58,48,14.58C58.89,46.65,43.6,58.53,31.76,62.94V57.1S33,29.75.14,26.82Z"/><path class="cls-2" d="M.14,26.82h0C33,29.75,31.76,57.1,31.76,57.1v5.84a40.53,40.53,0,0,1-12.71,2.6C2.17,62.38-.73,43.48.14,26.82Z"/><path class="cls-3" d="M107.66,185.5c-25.3,0-46.4-13.16-51.26-30.65a28.58,28.58,0,0,0-1,7.68c0,21.17,23.42,38.33,52.31,38.33S160,183.7,160,162.53a28.58,28.58,0,0,0-1.05-7.68C154.05,172.34,133,185.5,107.66,185.5Z"/><path class="cls-1" d="M108.29,7.16l-.63.67L107,7.16C8.63,17.11,8.7,112.47,8.7,112.47c0,46.42,43.67,68.67,98.33,68.67s99.58-22.25,99.58-68.67C206.61,112.47,206.68,17.11,108.29,7.16Z"/><ellipse class="cls-1" cx="106.98" cy="34.82" rx="64.92" ry="34.82"/><ellipse class="cls-1" cx="107.66" cy="152.62" rx="56.17" ry="34.82"/><line class="cls-1" x1="27.39" y1="51.15" x2="107.66" y2="51.15"/><line class="cls-1" x1="106.98" y1="51.15" x2="187.25" y2="51.15"/><path class="cls-2" d="M132,91.81c-.28-.12-.57-.23-.86-.33a21.05,21.05,0,0,1-7-4.73,23.88,23.88,0,0,0-33.05,0,21.05,21.05,0,0,1-7,4.73c-.29.1-.57.21-.86.33a21.06,21.06,0,0,0,14.23,39.6h0a40.84,40.84,0,0,1,20.29,0h0A21.06,21.06,0,0,0,132,91.81Zm-40.69,26a6.5,6.5,0,1,1,6.5-6.49A6.5,6.5,0,0,1,91.32,117.78Zm32.75,0H124a6.5,6.5,0,1,1,0-13h.08a6.5,6.5,0,1,1,0,13Z"/><path class="cls-2" d="M122.25,134.38a42.51,42.51,0,0,1-29.15.13A2.85,2.85,0,0,0,89.27,137c-.41,6.43,1.1,18.45,18.19,18.45,17.64,0,19.06-12.2,18.6-18.6A2.86,2.86,0,0,0,122.25,134.38Z"/><path class="cls-4" d="M85.57,71.11c1,5-1.33,9.75-5.16,10.49s-7.73-2.74-8.71-7.79S73,64.06,76.86,63.32,84.59,66.06,85.57,71.11Z"/><path class="cls-4" d="M143.76,73.24c-.57,5.12-4.18,8.91-8,8.48s-6.56-4.93-6-10,4.18-8.91,8.05-8.47S144.33,68.13,143.76,73.24Z"/><g class="cls-5"><circle class="cls-2" cx="169.4" cy="90.99" r="18.53"/></g><g class="cls-5"><circle class="cls-2" cx="45.91" cy="90.99" r="18.53"/></g><path class="cls-6" d="M116.84,47.13v0Z"/><path class="cls-2" d="M133.21,39.42c-7.13-4.29-13.79,2.87-16,5.59a2.34,2.34,0,0,0-.41,2.12v0c.11.33,1.14,2.56,9.79.24h0l5.85-1.55a2.36,2.36,0,0,0,1.77-2.28V41.39A2.29,2.29,0,0,0,133.21,39.42Z"/><path class="cls-6" d="M97.12,47.13v0Z"/><path class="cls-2" d="M80.75,39.42c7.13-4.29,13.79,2.87,16,5.59a2.31,2.31,0,0,1,.41,2.12v0c-.1.33-1.14,2.56-9.79.24h0l-5.85-1.55a2.35,2.35,0,0,1-1.76-2.28V41.39A2.31,2.31,0,0,1,80.75,39.42Z"/><path class="cls-7" d="M157.23,163.12c-.88,0-1.77,0-2.67-.05l.29-7.2c12.35.49,22.12-2.89,29-10.08,14.24-14.82,12.3-41.2,12.28-41.46l7.18-.59c.1,1.21,2.24,29.82-14.24,47C181.22,159,170.5,163.12,157.23,163.12Z"/><rect class="cls-8" x="189.15" y="42.39" width="21.2" height="65.78" rx="10.6" ry="10.6"/><path class="cls-9" d="M210.35,54.8a21.39,21.39,0,1,1,0,42.77"/></g></g></svg>