<svg xmlns="http://www.w3.org/2000/svg" xmlns:xlink="http://www.w3.org/1999/xlink" viewBox="0 0 410.42 293.13"><defs><style>.cls-1,.cls-12{fill:none;}.cls-2{fill:#e50012;}.cls-3{fill:#f6dee0;}.cls-4{fill:#dea4aa;}.cls-5{opacity:0.3;}.cls-6{clip-path:url(#clip-path);}.cls-7{clip-path:url(#clip-path-2);}.cls-8{fill:#6a3906;}.cls-9{fill:#f8d1dc;}.cls-10{clip-path:url(#clip-path-3);}.cls-11{fill:#717171;}.cls-12{stroke:#dea4aa;stroke-linecap:round;stroke-linejoin:round;stroke-width:2px;}</style><clipPath id="clip-path"><rect class="cls-1" x="270.21" y="151.3" width="56.83" height="56.83" transform="translate(32.2 404.42) rotate(-71.18)"/></clipPath><clipPath id="clip-path-2"><rect class="cls-1" x="94.7" y="107.01" width="52.55" height="46.73" transform="translate(-52.59 169.18) rotate(-59.75)"/></clipPath><clipPath id="clip-path-3"><path class="cls-1" d="M115.39,202.44l22.84,38.07s-39.09,45.71-75.65,41.11c-42.66-5.35-31.24-49.16-15.26-60.25S70.62,213.4,115.39,202.44Z"/></clipPath></defs><title>image_pig</title><g id="圖層_2" data-name="圖層 2"><g id="圖層_7" data-name="圖層 7"><path class="cls-2" d="M21.85,128.05A20,20,0,0,0,7.39,134a20.13,20.13,0,0,0-.11,28.88,19.8,19.8,0,0,0,14.36,6.21,19.79,19.79,0,0,0,14.58-6,20.4,20.4,0,0,0-14.37-35.07Z"/><path class="cls-2" d="M63.69,18.22C54.42,10.38,41.92,6.37,26.53,6.29c-3.46,0-7,.14-10.59.46S8.77,7.56,5.17,8.22a3.72,3.72,0,0,0-3,3.38L0,40.75a3.71,3.71,0,0,0,4.51,3.89c3.89-.87,7.56-1.52,10.89-2a68.38,68.38,0,0,1,8.76-.62c5.07,0,9,1.09,11.66,3.15A9,9,0,0,1,39.38,53c0,4.32-2.31,8.09-7,11.5-5.23,3.82-13.33,7.06-24.09,9.64A3.71,3.71,0,0,0,5.45,77.7l-.19,36.48A3.69,3.69,0,0,0,6.55,117a3.76,3.76,0,0,0,2.4.9,4.3,4.3,0,0,0,.61,0l25.72-4.12a3.7,3.7,0,0,0,3.12-3.47L39,97.59c11.66-4,21-10,27.69-17.75A44.57,44.57,0,0,0,77.86,50.1C77.93,37,73.16,26.23,63.69,18.22Z"/><path class="cls-3" d="M127.45.11a4.84,4.84,0,0,0-5.3,2.48c-7.3,13.82-34.69,70.53-1.14,86.27,0,0,54.47,14,63.62-53.82,0,0-34.92-30.09-57.18-34.93"/><path class="cls-3" d="M401.68,120.81h0a205.43,205.43,0,0,0,8.67-34.24,5.27,5.27,0,0,0-3-5.64c-22.52-10.42-72.64-7.24-72.64-7.24-23.09,40.92-9.18,65.43,4.26,78l3.27-7.84s13.57-37.47,59.41-23"/><path class="cls-4" d="M401.68,120.81h0c-45.84-14.46-59.41,23-59.41,23L339,151.66a59.51,59.51,0,0,0,15.63,10.61c24.44,5.18,38.91-18.6,47.05-41.46"/><path class="cls-3" d="M109.54,32.46h0A187.68,187.68,0,0,1,122.15,2.59a4.84,4.84,0,0,1,5.3-2.48C149.71,5,184.63,35,184.63,35c-5.77,42.74-29.52,53-46.31,54.71l2-7.54s10.83-34.95-30.73-49.75"/><path class="cls-4" d="M109.54,32.46h0c41.56,14.8,30.73,49.75,30.73,49.75l-2,7.54A54.33,54.33,0,0,1,121,88.86c-20.76-9.74-18.19-35.16-11.47-56.4"/><path class="cls-3" d="M265,40.54l-1.16.66-.6-1.19C122,12.23,81.74,145.05,81.74,145.05,62.11,209.68,113.5,259.14,189.6,282.27s148.09,11.14,167.72-53.49c0,0,40.45-132.75-92.35-188.24"/><path class="cls-3" d="M341.85,106c-8.13,26.78-55.21,36.19-105.13,21s-83.81-49.19-75.67-76,55.2-36.19,105.13-21S350,79.2,341.85,106"/><path class="cls-3" d="M267.81,262.65c-8.13,26.78-49.74,37.85-92.94,24.73s-71.62-45.48-63.48-72.26,49.75-37.85,93-24.72,71.61,45.47,63.47,72.25"/><line class="cls-3" x1="140.91" y1="57.69" x2="248.77" y2="102.57"/><line class="cls-3" x1="247.86" y1="102.19" x2="355.71" y2="147.06"/><path class="cls-4" d="M246.21,148.2c-.35-.27-.72-.54-1.09-.79a30.64,30.64,0,0,1-8-9.26,34.77,34.77,0,0,0-46.47-12.39,30.66,30.66,0,0,1-11.57,4c-.45,0-.9.09-1.34.15a30.65,30.65,0,0,0,5.16,61h0a59.62,59.62,0,0,1,28.53,7.61l0,0a30.65,30.65,0,0,0,34.85-50.35m-67,21.27a9.45,9.45,0,1,1,11.57-6.7,9.46,9.46,0,0,1-11.57,6.7m46.05,12.27-.06,0h-.06a9.45,9.45,0,0,1,4.87-18.27l.06,0,.06,0a9.45,9.45,0,1,1-4.87,18.26"/><g class="cls-5"><g class="cls-6"><path class="cls-4" d="M325.53,188.88a28.42,28.42,0,1,1-17.73-36.06,28.42,28.42,0,0,1,17.73,36.06"/></g></g><g class="cls-5"><g class="cls-7"><path class="cls-4" d="M141.15,142.14c-7.31,12.54-22.27,17.43-33.42,10.93s-14.24-21.93-6.93-34.47,22.27-17.42,33.41-10.93,14.25,21.94,6.94,34.47"/></g></g><path class="cls-4" d="M282.31,85c-7.2,9.75-20.14,3.83-24.57,1.38-1-.54-4.49-1.36-4.62-2.47h0c0-.51,3.41-1.47,16.33-3.16l8.31-4a3.46,3.46,0,0,1,3.64,2.1l1.21,2.93a3.35,3.35,0,0,1-.3,3.23"/><path class="cls-4" d="M182.48,58.26c11.83-2.57,17.65,10.42,19.36,15.18a3.41,3.41,0,0,1-.42,3.11l0,.06c-.3.4-2.78,3-13.6-4.28l-7.34-4.87a3.44,3.44,0,0,1-1.35-4l1-3a3.31,3.31,0,0,1,2.37-2.22"/><path class="cls-8" d="M156.75,220.56a2,2,0,0,0-.45-.47l-.09-.06-14-9.35a1.51,1.51,0,0,1-.26-.18,1.57,1.57,0,0,1-.33-.35,2.13,2.13,0,0,1-.38-1.14,2.09,2.09,0,0,1,0-.25s0,0,0,0L144,197.81s.18-.73.18-.73a2.42,2.42,0,0,0-.42-1.34c-.51-.72-1.08-.9-2.19-.73-7.86,1.63-16.26,3.39-26.41,7.6,0,0,4,24.65,20.71,40.22,0,0,12.29-12,20.24-18.49h0a1.35,1.35,0,0,0,.19-.16A2.89,2.89,0,0,0,156.75,220.56Z"/><path class="cls-9" d="M115.39,202.44l22.84,38.07s-39.09,45.71-75.65,41.11c-42.66-5.35-31.24-49.16-15.26-60.25S70.62,213.4,115.39,202.44Z"/><g class="cls-10"><path class="cls-3" d="M6.33,241.23c11.79,23.06,48,28.11,80.92,11.28s50-49.15,38.22-72.21-48-28.1-80.92-11.27S-5.46,218.18,6.33,241.23Z"/></g><path class="cls-11" d="M194.2,104.5c-1.92,7.22-7.92,11.89-13.39,10.43s-8.36-8.49-6.44-15.71,7.92-11.89,13.4-10.43,8.36,8.5,6.43,15.71"/><path class="cls-11" d="M273.58,125.31c-2.07,7.74-8.49,12.74-14.36,11.17s-9-9.09-6.89-16.83,8.49-12.73,14.35-11.17,9,9.1,6.9,16.83"/><path class="cls-12" d="M177.47,215.71s22.72-9,36.16,19.37"/></g></g></svg>