<?xml version="1.0" standalone="no"?>
<!DOCTYPE svg PUBLIC "-//W3C//DTD SVG 1.1//EN" "http://www.w3.org/Graphics/SVG/1.1/DTD/svg11.dtd" >
<svg xmlns="http://www.w3.org/2000/svg">
<metadata>Generated by i2gtrip</metadata>
<defs>
<font id="i2gtrip" horiz-adv-x="1024">
<font-face units-per-em="1024" ascent="960" descent="-64" />
<missing-glyph horiz-adv-x="1024" />
<glyph unicode="&#x20;" horiz-adv-x="512" d="" />
<glyph unicode="&#xe900;" glyph-name="arrow-left" horiz-adv-x="530" d="M504.978 960l-501.147-500.509c-2.391-3.161-3.83-7.158-3.83-11.491s1.439-8.33 3.865-11.539l-0.035 0.048 501.147-497.955h24.898v1006.125s-19.152 15.322-24.898 15.322z" />
<glyph unicode="&#xe901;" glyph-name="arrow-right" horiz-adv-x="1979" d="M0 911.884l967.248-968.482c6.109-4.621 13.833-7.402 22.207-7.402s16.099 2.781 22.3 7.47l-0.093-0.067 962.313 968.482v48.116h-1944.366s-29.61-33.311-29.61-48.116z" />
<glyph unicode="&#xe902;" glyph-name="calendar" horiz-adv-x="1027" d="M128.327 802.116v128.701c1.808 16.216 15.439 28.711 31.988 28.711s30.181-12.495 31.975-28.565l0.013-0.146v-128.701c-1.808-16.216-15.439-28.711-31.988-28.711s-30.181 12.495-31.975 28.565l-0.013 0.146zM673.438 770.315c0.001 0 0.001 0 0.002 0 17.638 0 31.962 14.193 32.173 31.781v128.721c0 17.77-14.405 32.175-32.175 32.175s-32.175-14.405-32.175-32.175v0-128.701c0.211-17.608 14.535-31.801 32.173-31.801 0.001 0 0.002 0 0.002 0v0zM1026.993 192.655c0-141.746-114.908-256.655-256.655-256.655s-256.655 114.908-256.655 256.655c0 141.746 114.908 256.655 256.655 256.655v0 0c141.585-0.213 256.281-115.039 256.281-256.654v0zM962.642 192.655c0 106.207-86.097 192.304-192.304 192.304s-192.304-86.097-192.304-192.304c0-106.207 86.097-192.304 192.304-192.304v0c105.96 0.424 191.718 86.314 191.93 192.284v0.020zM256.655 578.011h-128.327v-128.701h128.327zM128.327 257.005h128.327v128.327h-128.327zM321.005 449.309h127.953v128.701h-127.953zM321.005 257.005h127.953v128.327h-127.953zM64.351 199.389v442.598h705.613v-127.953h64.351v249.92c0 0.003 0 0.006 0 0.009 0 38.658-31.022 70.070-69.529 70.701l-0.059 0.001h-28.060v-32.55c0-35.54-28.811-64.351-64.351-64.351s-64.351 28.811-64.351 64.351v0 32.55h-383.486v-32.55c0-35.54-28.811-64.351-64.351-64.351s-64.351 28.811-64.351 64.351v0 32.55h-28.060c-37.703-1.448-67.719-32.363-67.719-70.288 0-0.149 0-0.297 0.001-0.446v0.023-564.566c-0.003-0.223-0.004-0.486-0.004-0.749 0-38.509 31.113-69.752 69.573-69.962h379.39v63.977h-379.37c-2.993 0.361-5.29 2.885-5.29 5.946 0 0.278 0.019 0.552 0.056 0.82l-0.003-0.031zM641.263 449.309v128.701h-127.953v-128.701zM865.742 192.655h-95.778v96.9c0.088 0.897 0.139 1.939 0.139 2.993 0 17.847-14.468 32.314-32.314 32.314-16.793 0-30.594-12.809-32.165-29.19l-0.010-0.131v-134.313c0-0.001 0-0.001 0-0.002 0-17.638 14.193-31.962 31.781-32.173h128.721c17.77 0 32.175 14.405 32.175 32.175s-14.405 32.175-32.175 32.175v0z" />
<glyph unicode="&#xe903;" glyph-name="cam" horiz-adv-x="820" d="M410.389 329.543c125.302 0 226.879 101.577 226.879 226.879s-101.577 226.879-226.879 226.879c-125.302 0-226.879-101.577-226.879-226.879v0c0.204-125.22 101.659-226.675 226.859-226.879h0.020zM410.389 739.573c101.35 0 183.51-82.16 183.51-183.51s-82.16-183.51-183.51-183.51c-101.35 0-183.51 82.16-183.51 183.51v0c0 101.35 82.16 183.51 183.51 183.51v0zM410.389 437.427c65.719 0 118.995 53.276 118.995 118.995s-53.276 118.995-118.995 118.995c-65.719 0-118.995-53.276-118.995-118.995v0 0c0-65.719 53.276-118.995 118.995-118.995v0zM410.389 631.689c41.767 0 75.626-33.859 75.626-75.626s-33.859-75.626-75.626-75.626c-41.767 0-75.626 33.859-75.626 75.626v0c0 41.767 33.859 75.626 75.626 75.626v0zM409.313 826.669h2.151c10.813 1.433 19.070 10.594 19.070 21.684s-8.257 20.251-18.958 21.672l-0.111 0.012h-2.151c-0.804 0.105-1.733 0.164-2.677 0.164-11.122 0-20.305-8.305-21.684-19.052l-0.011-0.109c-0.137-0.911-0.215-1.962-0.215-3.032 0-10.942 8.172-19.975 18.745-21.33l0.107-0.011zM349.816 63.955h-18.638c-11.877 0-21.505-9.628-21.505-21.505s9.628-21.505 21.505-21.505h18.638c11.877 0 21.505 9.628 21.505 21.505s-9.628 21.505-21.505 21.505v0zM669.883 243.164c89.298 74.81 145.68 186.369 145.68 311.097 0 223.682-181.33 405.012-405.012 405.012s-405.012-181.33-405.012-405.012c0-98.86 35.42-189.447 94.262-259.763l-0.518 0.636c15.834-18.968 32.606-35.967 50.681-51.49l0.573-0.48c-91.398-63.014-150.54-167.129-150.54-285.057 0-0.59 0.001-1.179 0.004-1.769v0.091c0-11.877 9.628-21.505 21.505-21.505v0h777.408c11.877 0 21.505 9.628 21.505 21.505v0 0c0.005 0.723 0.009 1.577 0.009 2.433 0 117.706-59.165 221.593-149.378 283.545l-1.167 0.757zM48.745 556.063c0 199.73 161.913 361.644 361.644 361.644s361.644-161.913 361.644-361.644c0-199.73-161.913-361.644-361.644-361.644v0 0c-199.648 0.204-361.44 161.995-361.644 361.624v0.020zM44.085-17.406c7.227 100.056 62.229 185.875 142.082 235.454l1.285 0.743c62.643-42.095 139.77-67.188 222.757-67.188s160.113 25.092 224.206 68.104l-1.449-0.916c57.612-36.153 101.558-89.478 125.117-152.728l0.688-2.108h-306.806c-11.877 0-21.505-9.628-21.505-21.505s9.628-21.505 21.505-21.505h318.992c2.531-11.361 4.564-25.084 5.667-39.068l0.068-1.075z" />
<glyph unicode="&#xe904;" glyph-name="camera" horiz-adv-x="1325" d="M663.289 716.508c-0.141 0-0.309 0-0.476 0-188.425 0-341.174-152.749-341.174-341.174s152.749-341.174 341.174-341.174c188.258 0 340.903 152.477 341.174 340.671v0.026c0 0.141 0 0.309 0 0.477 0 188.258-152.478 340.903-340.672 341.174h-0.026zM663.289 88.957c-157.898 0-285.9 128.002-285.9 285.9s128.002 285.9 285.9 285.9c157.898 0 285.9-128.002 285.9-285.9v0c0-157.898-128.002-285.9-285.9-285.9v0zM663.289 588.329c-0.141 0-0.309 0.001-0.476 0.001-117.634 0-212.996-95.361-212.996-212.996s95.361-212.996 212.996-212.996c117.467 0 212.724 95.090 212.995 212.493v0.026c0 0.142 0.001 0.309 0.001 0.477 0 117.467-95.090 212.725-212.494 212.995h-0.026zM663.289 214.276c-0.141 0-0.308-0.001-0.476-0.001-89.213 0-161.534 72.321-161.534 161.534s72.321 161.534 161.534 161.534c89.045 0 161.262-72.049 161.533-161.030v-0.026c0.002-0.283 0.003-0.618 0.003-0.953 0-88.949-72.108-161.057-161.057-161.057-0.001 0-0.002 0-0.003 0v0zM1238.902 817.050h-347.369l-33.832 95.3c-10.42 28.037-36.948 47.65-68.058 47.65-0.029 0-0.058 0-0.086 0h-250.635c-0.024 0-0.053 0-0.082 0-31.11 0-57.638-19.614-67.895-47.15l-0.163-0.501-35.738-95.3h-118.649v38.12c-1.305 29.864-25.717 53.61-55.728 53.844h-82.458c-30.478-0.532-55.012-25.233-55.274-55.725v-36.239h-37.167c-47.428-0.27-85.771-38.78-85.771-86.245 0-0.168 0-0.336 0.001-0.504v0.026-708.557c0.532-47.154 38.616-85.238 85.72-85.77h1153.183c47.154 0.532 85.238 38.616 85.77 85.72v707.655c0.008 0.426 0.012 0.928 0.012 1.431 0 47.469-38.35 85.982-85.757 86.245h-0.025zM1269.398 149.949h-84.341v448.864h84.341zM524.151 892.337c2.218 6.143 7.988 10.459 14.769 10.483h248.736c6.784-0.024 12.554-4.34 14.737-10.374l0.035-0.11 28.59-75.287h-333.55zM176.782 853.264h83.864v-36.214h-83.864zM57.18 598.812h85.77v-448.864h-85.77zM1238.902-6.82h-1153.132c-15.79 0-28.59 12.8-28.59 28.59v0 0 73.381h112.931c15.79 0 28.59 12.8 28.59 28.59v0 0 502.708c0 15.79-12.8 28.59-28.59 28.59h-112.931v74.334c0 15.79 12.8 28.59 28.59 28.59h1153.132c15.79 0 28.59-12.8 28.59-28.59v0 0-73.381h-111.025c-15.79 0-28.59-12.8-28.59-28.59v0 0-503.661c0-15.79 12.8-28.59 28.59-28.59v0h112.931v-73.381c0-15.79-12.8-28.59-28.59-28.59v0zM663.289 480.64c-57.896 0-104.83-46.934-104.83-104.83v0c1.78-12.628 12.514-22.238 25.493-22.238s23.713 9.609 25.477 22.101l0.016 0.136c0.267 29.63 24.215 53.578 53.819 53.844h0.025c14.211 0 25.731 11.52 25.731 25.731s-11.52 25.731-25.731 25.731v0z" />
<glyph unicode="&#xe905;" glyph-name="chat-bubble" horiz-adv-x="1022" d="M872.424 810.146c-92.207 92.313-219.647 149.417-360.424 149.417s-268.216-57.104-360.419-149.412l-0.005-0.005c-92.844-92.62-150.285-220.694-150.285-362.183 0-124.639 44.574-238.868 118.651-327.614l-0.662 0.815c-17.162-38.662-45.494-69.77-80.873-89.934l-0.944-0.495c-16.089-8.043-26.944-24.392-26.944-43.278 0-7.426 1.678-14.461 4.677-20.744l-0.125 0.291c6.807-14.2 20.089-24.347 35.915-26.667l0.257-0.031c11.832-1.92 25.471-3.017 39.367-3.017 0.391 0 0.781 0.001 1.171 0.003h-0.060c0.213-0.001 0.465-0.001 0.717-0.001 67.413 0 129.612 22.321 179.611 59.975l-0.762-0.55c69.561-37.822 152.327-60.058 240.286-60.058 282.056 0 510.708 228.652 510.708 510.708 0 0.677-0.001 1.354-0.004 2.030v-0.105c0.003 0.636 0.005 1.389 0.005 2.143 0 140.319-57.314 267.251-149.809 358.663l-0.049 0.049zM829.362 129.346c-81.909-81.566-194.882-131.993-319.632-131.993-83.874 0-162.423 22.794-229.793 62.526l2.115-1.154c-4.236 2.411-9.306 3.833-14.709 3.833-7.975 0-15.226-3.097-20.617-8.154l0.016 0.015c-41.74-34.031-95.495-54.766-154.082-55.118h-0.078c37.69 30.538 67.133 69.803 85.436 114.786l0.687 1.91c1.015 2.756 1.602 5.938 1.602 9.258s-0.587 6.502-1.663 9.45l0.061-0.191c-0.649 5.667-2.985 10.694-6.485 14.67l0.026-0.030c-70.543 79.44-113.632 184.64-113.632 299.903 0 249.95 202.625 452.575 452.575 452.575s452.575-202.625 452.575-452.575c0-124.822-50.532-237.842-132.256-319.718l0.007 0.007zM511.569 486.325c-0.001 0-0.002 0-0.003 0-19.826 0-35.926-15.95-36.169-35.718v-0.023c0.24-19.88 16.292-35.932 36.149-36.171h0.023c19.791 0.243 35.741 16.343 35.741 36.169 0 0.001 0 0.002 0 0.003v0c0 19.739-16.002 35.741-35.741 35.741v0zM696.303 486.325c-19.739 0-35.741-16.002-35.741-35.741s16.002-35.741 35.741-35.741c19.739 0 35.741 16.002 35.741 35.741v0c0 19.739-16.002 35.741-35.741 35.741v0zM326.405 486.325c-19.976-0.001-36.169-16.195-36.169-36.172s16.195-36.172 36.172-36.172c19.977 0 36.172 16.195 36.172 36.172 0 0.151-0.001 0.303-0.003 0.454v-0.023c0 0.001 0 0.002 0 0.003 0 19.739-16.002 35.741-35.741 35.741-0.151 0-0.303-0.001-0.454-0.003h0.023z" />
<glyph unicode="&#xe906;" glyph-name="facebook" d="M876.353 958.168l-4.396 1.832h-718.815c-6.595-1.832-13.556-2.931-20.15-5.129-68.009-18-119.374-73.539-131.014-142.57l-0.146-1.046c0.058-0.495 0.091-1.068 0.091-1.649s-0.033-1.154-0.097-1.718l0.006 0.069v-718.815c3.518-15.855 7.3-28.975 11.773-41.77l-0.782 2.569c22.388-58.31 73.118-101.136 134.862-111.955l1.061-0.154 4.396-1.832h359.774v386.885h-124.932v170.361h124.932v12.457c-0.118 4.81-0.185 10.476-0.185 16.157 0 28.259 1.665 56.128 4.901 83.517l-0.319-3.319c10.542 74.96 59.943 136.3 126.847 163.634l1.382 0.5c16.046 6.222 34.603 10.072 53.988 10.619l0.235 0.005c45.43 0 90.859 0 136.289 0h6.595v-169.262h-129.328c-1.248 0.151-2.693 0.237-4.158 0.237-19.157 0-34.879-14.703-36.499-33.439l-0.010-0.137s0-1.832 0-2.565c0-24.913 0-51.292 0-78.036h169.995v-170.728h-170.361v-385.786h200.037c7.679 1.487 14.079 3.135 20.333 5.113l-1.282-0.35c67.967 17.638 119.38 72.98 131.015 141.843l0.145 1.041c0.505 1.685 1.128 3.142 1.89 4.51l-0.058-0.114v718.815c-1.567 7.901-3.34 14.541-5.482 21.013l0.352-1.229c-18.141 67.513-73.284 118.487-141.826 130.277l-1.057 0.15z" />
<glyph unicode="&#xe907;" glyph-name="image-upload" horiz-adv-x="1026" d="M384.656 703.697c0-35.444-28.733-64.177-64.177-64.177s-64.177 28.733-64.177 64.177c0 35.444 28.733 64.177 64.177 64.177v0c35.444 0 64.177-28.733 64.177-64.177v0zM763.661 336.801c-6.18 8.1-15.839 13.274-26.706 13.274-7.409 0-14.257-2.405-19.805-6.478l0.093 0.065c-2.602-2.002-4.859-4.26-6.798-6.776l-0.064-0.086-64.58-96.063c-2.678-4.774-4.255-10.477-4.255-16.549s1.577-11.775 4.344-16.722l-0.089 0.174c5.545-10.125 16.102-16.89 28.245-16.952h32.299v-63.773c-0.002-0.121-0.003-0.263-0.003-0.406 0-17.469 14.048-31.658 31.464-31.884h0.021c17.833 0 32.29 14.457 32.29 32.29v0 63.773h31.886c18.125 0.485 32.633 15.293 32.633 33.49 0 6.090-1.625 11.801-4.465 16.722l0.086-0.162zM961.438 960h-897.261c-35.444 0-64.177-28.733-64.177-64.177v0 0-640.959c0-35.444 28.733-64.177 64.177-64.177h386.27c17.6-144.070 139.186-254.567 286.58-254.567 158.775 0 287.603 128.22 288.587 286.763v672.939c0 35.444-28.733 64.177-64.177 64.177v0zM403.626 535.789c-5.423 4.553-12.479 7.319-20.181 7.319s-14.759-2.766-20.23-7.359l0.049 0.040-234.911-172.752v468.61h768.908v-352.366s-127.142 133.6-167.101 180.421c-5.989 6.45-14.516 10.474-23.982 10.474-7.572 0-14.544-2.574-20.086-6.896l0.073 0.055-3.633-3.633-179.21-208.271zM957.402 190.688c-15.307-110.138-108.856-194.011-221.994-194.011s-206.687 83.874-221.86 192.834l-0.134 1.177c-1.669 9.623-2.691 20.785-2.824 32.161l-0.001 0.129c0 123.942 100.475 224.416 224.416 224.416s224.416-100.475 224.416-224.416v0c0-0.066 0-0.144 0-0.222 0-11.318-0.881-22.43-2.577-33.272l0.155 1.204z" />
<glyph unicode="&#xe908;" glyph-name="line" d="M597.852 588.402c-0.001 0-0.002 0-0.003 0-10.588 0-19.195-8.48-19.4-19.018v-88.617l-77.615 101.045c-3.315 4.055-8.318 6.623-13.92 6.623-0.384 0-0.765-0.012-1.142-0.036l0.052 0.003c-10.24-0.59-18.32-9.038-18.32-19.373 0-0.268 0.005-0.535 0.016-0.801l-0.001 0.038v-143.514c-0.225-1.108-0.353-2.382-0.353-3.685 0-10.716 8.687-19.404 19.404-19.404 10.467 0 18.999 8.288 19.39 18.66l0.001 0.036v93.723l79.811-103.242c3.4-3.109 7.841-5.131 12.745-5.488l0.069-0.004c10.725 0.592 19.221 9.343 19.403 20.118v144.63c-0.387 10.209-8.757 18.338-19.025 18.338-0.391 0-0.779-0.012-1.164-0.035l0.053 0.003zM415.531 589.134h8.42c8.29 0 15.010-6.72 15.010-15.010v-152.666c0-8.29-6.72-15.010-15.010-15.010h-8.42c-8.29 0-15.010 6.72-15.010 15.010v152.666c0 8.29 6.72 15.010 15.010 15.010zM363.178 444.522h-57.479v125.575c-0.872 9.58-8.866 17.028-18.599 17.028-0.93 0-1.843-0.068-2.737-0.199l0.101 0.012c-8.961-0.975-16.038-7.927-17.196-16.743l-0.011-0.098v-144.612c-0.002-0.109-0.004-0.237-0.004-0.366 0-10.514 8.523-19.038 19.038-19.038 0.001 0 0.002 0 0.004 0h76.882c9.511 1.353 16.745 9.442 16.745 19.221s-7.233 17.868-16.641 19.209l-0.103 0.012zM867.306 960h-715.738c-0.109 0-0.237 0-0.366 0-83.507 0-151.202-67.695-151.202-151.202 0 0 0 0 0-0.001v0-716.104c-0.002-0.326-0.004-0.712-0.004-1.098 0-86.539 70.154-156.694 156.694-156.694 0.001 0 0.003 0 0.004 0h710.613c0.218-0.001 0.476-0.002 0.734-0.002 86.742 0 157.060 70.318 157.060 157.060 0 0.258-0.001 0.516-0.002 0.774v-0.040 710.613c0 0.001 0 0.003 0 0.004 0 86.539-70.154 156.694-156.694 156.694-0.386 0-0.772-0.001-1.157-0.004h0.059zM886.344 489.187c-0.254-8.049-1.307-15.718-3.086-23.104l0.157 0.772c-4.931-30.884-14.929-58.605-29.19-83.578l0.633 1.204c-6.59-12.082-39.54-57.845-49.424-70.292-83.046-92.060-183.965-166.246-297.5-217.393l-5.636-2.271c-2.821-1.518-6.174-2.41-9.735-2.41-7.696 0-14.418 4.166-18.036 10.365l-0.053 0.099c-1.46 2.748-2.318 6.008-2.318 9.469 0 1.575 0.178 3.108 0.514 4.581l-0.026-0.138 7.688 70.292c0.063 0.607 0.098 1.311 0.098 2.023 0 10.527-7.795 19.233-17.927 20.662l-0.111 0.013c-183.053 19.038-325.469 143.88-325.469 295.448 0 165.48 167.677 298.377 375.625 298.377 200.626 0 366.107-125.941 373.795-284.099 0.262-4.485 0.412-9.73 0.412-15.010s-0.149-10.525-0.444-15.732l0.033 0.721zM741.732 550.693c9.592 1.073 16.981 9.136 16.981 18.926 0 0.813-0.051 1.615-0.15 2.402l0.010-0.094c-0.975 8.961-7.927 16.038-16.743 17.196l-0.098 0.011h-76.882c-10.514 0-19.038-8.523-19.038-19.038v0-144.612c-0.002-0.109-0.004-0.237-0.004-0.366 0-10.514 8.523-19.038 19.038-19.038 0.001 0 0.002 0 0.004 0h76.882c9.592 1.073 16.981 9.136 16.981 18.926 0 0.813-0.051 1.615-0.15 2.402l0.010-0.094c-0.975 8.961-7.927 16.038-16.743 17.196l-0.098 0.011h-57.479v33.682h57.479c9.511 1.353 16.745 9.442 16.745 19.221s-7.233 17.868-16.641 19.209l-0.103 0.012h-57.479v34.048z" />
<glyph unicode="&#xe909;" glyph-name="logo-sm" horiz-adv-x="1462" d="M1210.079 730.238l-18.721 6.808c-52.424 22.739-97.084 53.948-134.352 92.367l-0.101 0.105c-84.063 80.788-198.473 130.541-324.503 130.541s-240.439-49.753-324.658-130.689l0.155 0.148c-38.014-38.669-83.442-69.911-134-91.442l-2.722-1.030-17.019-6.808c-149.36-64.409-252.011-210.384-252.011-380.334 0-228.096 184.908-413.004 413.004-413.004 42.121 0 82.769 6.305 121.051 18.024l-2.926-0.771c59.603 15.674 128.030 24.674 198.56 24.674s138.955-9 204.194-25.915l-5.635 1.24c41.535-15.362 89.509-24.25 139.559-24.25 228.486 0 413.71 185.224 413.71 413.71 0 178.436-112.965 330.487-271.28 388.539l-2.872 0.921zM411.869 222.493c-0.168-0.001-0.367-0.001-0.566-0.001-70.497 0-127.645 57.149-127.645 127.645s57.149 127.645 127.645 127.645c70.297 0 127.321-56.825 127.644-127.046v-0.031c0.003-0.337 0.005-0.736 0.005-1.135 0-70.183-56.895-127.078-127.078-127.078-0.002 0-0.004 0-0.005 0v0zM1054.635 222.493v0c-2.545-0.181-5.516-0.284-8.51-0.284-70.497 0-127.646 57.149-127.646 127.646 0 67.503 52.398 122.767 118.739 127.34l0.397 0.022h17.019c2.545 0.181 5.516 0.284 8.51 0.284 70.497 0 127.646-57.149 127.646-127.646 0-67.503-52.398-122.767-118.739-127.34l-0.397-0.022z" />
<glyph unicode="&#xe90a;" glyph-name="mac-cancel" horiz-adv-x="1025" d="M7.728 798.528l154.059 154.059c9.643 9.643 25.277 9.643 34.92 0l820.621-820.621c9.643-9.643 9.643-25.277 0-34.92l-154.059-154.059c-9.643-9.643-25.277-9.643-34.92 0l-820.621 820.621c-9.643 9.643-9.643 25.277 0 34.92zM7.728 130.939l820.621 820.621c9.643 9.643 25.277 9.643 34.92 0l154.059-154.059c9.643-9.643 9.643-25.277 0-34.92l-820.621-820.621c-9.643-9.643-25.277-9.643-34.92 0l-154.059 154.059c-9.643 9.643-9.643 25.277 0 34.92z" />
<glyph unicode="&#xe90b;" glyph-name="mac-min" horiz-adv-x="4636" d="M94.609 960h4446.609c52.251 0 94.609-42.358 94.609-94.609v-834.783c0-52.251-42.358-94.609-94.609-94.609h-4446.609c-52.251 0-94.609 42.358-94.609 94.609v834.783c0 52.251 42.358 94.609 94.609 94.609z" />
<glyph unicode="&#xe90c;" glyph-name="mac-resize" horiz-adv-x="996" d="M0 652.23v-683.933c0.973-17.432 14.865-31.324 32.208-32.293l0.089-0.004h683.933c17.432 0.973 31.324 14.865 32.293 32.208l0.004 0.089c1.316 3.385 2.078 7.303 2.078 11.399s-0.763 8.014-2.153 11.62l0.075-0.221-693.432 683.933c-5.597 6.324-13.734 10.291-22.798 10.291s-17.201-3.967-22.77-10.259l-0.028-0.032c-5.69-5.929-9.267-13.924-9.498-22.753l-0.001-0.045zM995.503 243.77v683.933c-1.035 18.051-15.926 32.297-34.144 32.297-0.019 0-0.037 0-0.056 0h-683.93c-17.432-0.973-31.324-14.865-32.293-32.208l-0.004-0.089c0.023-8.909 3.649-16.967 9.498-22.797l683.934-683.934c5.841-5.821 13.899-9.42 22.798-9.42s16.957 3.599 22.799 9.421l-0.001-0.001c6.396 5.688 10.631 13.685 11.39 22.672l0.009 0.126z" />
<glyph unicode="&#xe90d;" glyph-name="map-mark" horiz-adv-x="692" d="M346.222 960c-191.213 0-346.222-155.009-346.222-346.222v0c0-111.111 115.111-325.333 212-488.889l29.333-48c44.444-73.333 79.556-124 84-130.222 4.888-6.1 12.148-10.123 20.359-10.662l0.085-0.004c8.632 0.276 16.257 4.357 21.291 10.612l0.043 0.055c4.889 5.778 39.111 58.222 84 130.222l29.333 48c96.889 161.333 211.556 375.556 211.556 486.667 0.005 0.662 0.007 1.446 0.007 2.229 0 190.435-153.749 344.959-343.888 346.215l-0.119 0.001zM346.222 8.444c-71.111 107.111-296 462.667-296 605.333-0.144 3.447-0.226 7.492-0.226 11.556 0 163.478 132.525 296.003 296.003 296.003 159.414 0 289.395-126.018 295.759-283.871l0.018-0.577c0.212-3.454 0.333-7.49 0.333-11.556s-0.121-8.102-0.36-12.107l0.026 0.552c0-142.667-224.444-498.222-295.556-605.333zM496 613.778c0 0.132 0.001 0.288 0.001 0.444 0 82.965-67.257 150.222-150.222 150.222s-150.222-67.257-150.222-150.222c0-82.809 67.003-149.968 149.753-150.222h0.024c0.264-0.002 0.576-0.003 0.889-0.003 82.72 0 149.778 67.058 149.778 149.778 0 0.001 0 0.002 0 0.003v0zM243.556 613.778c0 56.701 45.965 102.667 102.667 102.667s102.667-45.965 102.667-102.667c0-56.701-45.965-102.667-102.667-102.667v0c-0.132-0.001-0.289-0.001-0.445-0.001-56.456 0-102.222 45.766-102.222 102.222 0 0.157 0 0.313 0.001 0.469v-0.024zM346.222 462.667c-0.132 0-0.288-0.001-0.444-0.001-83.702 0-151.556 67.854-151.556 151.556s67.854 151.556 151.556 151.556c83.545 0 151.302-67.6 151.555-151.086v-0.024c0-0.132 0.001-0.289 0.001-0.445 0-83.546-67.601-151.302-151.088-151.555h-0.024zM346.222 762.667c-0.132 0-0.288 0.001-0.444 0.001-82.229 0-148.889-66.66-148.889-148.889s66.66-148.889 148.889-148.889c82.073 0 148.635 66.406 148.888 148.42v0.024c0 0.132 0.001 0.289 0.001 0.445 0 82.073-66.407 148.636-148.421 148.888h-0.024zM346.222 509.778c-57.438 0-104 46.562-104 104s46.562 104 104 104c57.438 0 104-46.562 104-104v0c0-57.438-46.562-104-104-104v0zM346.222 715.111c-55.965 0-101.333-45.368-101.333-101.333s45.368-101.333 101.333-101.333c55.965 0 101.333 45.368 101.333 101.333v0c0 55.965-45.368 101.333-101.333 101.333v0z" />
<glyph unicode="&#xe90e;" glyph-name="menu_1" horiz-adv-x="1365" d="M0 960h1365.098v-211.862h-1365.098v211.862zM0 553.931h1365.098v-211.862h-1365.098v211.862zM0 147.862h1365.098v-211.862h-1365.098v211.862z" />
<glyph unicode="&#xe90f;" glyph-name="menu" horiz-adv-x="811" d="M230.827 706.987c0-25.214-20.44-45.653-45.653-45.653s-45.653 20.44-45.653 45.653c0 25.214 20.44 45.653 45.653 45.653s45.653-20.44 45.653-45.653zM230.827 534.613c0-25.214-20.44-45.653-45.653-45.653s-45.653 20.44-45.653 45.653c0 25.214 20.44 45.653 45.653 45.653s45.653-20.44 45.653-45.653zM230.827 361.813c0-25.214-20.44-45.653-45.653-45.653s-45.653 20.44-45.653 45.653c0 25.214 20.44 45.653 45.653 45.653s45.653-20.44 45.653-45.653zM230.827 189.44c0-25.214-20.44-45.653-45.653-45.653s-45.653 20.44-45.653 45.653c0 25.214 20.44 45.653 45.653 45.653s45.653-20.44 45.653-45.653zM810.667-64h-810.667v1024h810.667zM42.667-21.333h725.333v938.667h-725.333zM279.893 726.613h391.253v-42.667h-391.253v42.667zM279.893 554.24h391.253v-42.667h-391.253v42.667zM279.893 381.867h391.253v-42.667h-391.253v42.667zM279.893 209.493h391.253v-42.667h-391.253v42.667z" />
<glyph unicode="&#xe910;" glyph-name="microphone" horiz-adv-x="709" d="M354.13 251.739c0.874-0.015 1.905-0.023 2.938-0.023 53.353 0 101.535 22.139 135.861 57.732l0.055 0.057c35.65 34.38 57.789 82.562 57.789 135.915 0 1.033-0.008 2.064-0.025 3.094l0.002-0.155v315.022c0.015 0.874 0.023 1.905 0.023 2.938 0 53.353-22.139 101.535-57.732 135.861l-0.057 0.055c-34.38 35.65-82.562 57.789-135.915 57.789-1.033 0-2.064-0.008-3.094-0.025l0.155 0.002c-0.874 0.015-1.905 0.023-2.938 0.023-53.353 0-101.535-22.139-135.861-57.732l-0.055-0.057c-35.65-34.38-57.789-82.562-57.789-135.915 0-1.033 0.008-2.064 0.025-3.094l-0.002 0.155v-315.022c-0.015-0.874-0.023-1.905-0.023-2.938 0-53.353 22.139-101.535 57.732-135.861l0.057-0.055c34.38-35.65 82.562-57.789 135.915-57.789 1.033 0 2.064 0.008 3.094 0.025l-0.155-0.002zM696.42 554.921c-6.915 7.088-16.56 11.483-27.233 11.483-0.139 0-0.277-0.001-0.416-0.002h0.021c-10.772-0.138-20.501-4.494-27.634-11.488l0.007 0.006c-7.088-6.915-11.483-16.56-11.483-27.233 0-0.139 0.001-0.277 0.002-0.416v0.021-78.935c0.018-1.157 0.029-2.522 0.029-3.89 0-74.826-31.079-142.393-81.033-190.497l-0.083-0.080c-48.211-49.828-115.686-80.76-190.386-80.76-1.435 0-2.867 0.011-4.296 0.034l0.216-0.003c-1.214-0.020-2.646-0.031-4.081-0.031-74.7 0-142.175 30.933-190.316 80.687l-0.070 0.073c-50.037 48.183-81.116 115.751-81.116 190.577 0 1.368 0.010 2.733 0.031 4.096l-0.002-0.206v78.935c-0.6 21.131-17.873 38.032-39.094 38.032-0.005 0-0.010 0-0.016 0h0.001c-0.117 0.001-0.256 0.002-0.395 0.002-10.672 0-20.318-4.396-27.225-11.476l-0.008-0.008c-7.278-6.977-11.81-16.77-11.84-27.622v-78.941c-0.020-1.364-0.031-2.974-0.031-4.587 0-89.502 34.533-170.939 91.001-231.713l-0.195 0.213c55.781-63.626 134.125-106.282 222.42-115.409l1.468-0.123v-81.088h-157.152c-20.119-1.982-35.709-18.814-35.709-39.288s15.589-37.306 35.545-39.275l0.163-0.013h394.674c20.119 1.982 35.709 18.814 35.709 39.288s-15.589 37.306-35.545 39.275l-0.163 0.013h-157.511v82.164c89.763 9.25 168.107 51.906 223.552 115.14l0.336 0.391c56.27 60.309 90.816 141.524 90.816 230.807 0 1.857-0.015 3.71-0.045 5.559l0.004-0.279v78.935c-0.030 10.857-4.562 20.65-11.827 27.614l-0.014 0.013z" />
<glyph unicode="&#xe911;" glyph-name="plus" d="M1024 507.45h-438.408v452.55h-147.184v-452.55h-438.408v-147.184h438.408v-424.266h147.184v424.266h438.408v147.184z" />
<glyph unicode="&#xe912;" glyph-name="search" d="M1008.709 34.158l-252.054 252.054c51.145 68.083 81.904 154.024 81.904 247.149 0 1.551-0.009 3.101-0.026 4.648l0.002-0.236c0.012 1.173 0.019 2.559 0.019 3.946 0 232.1-188.154 420.254-420.254 420.254s-420.254-188.154-420.254-420.254c0-232.094 188.144-420.244 420.235-420.254h3.947c95.13 0.262 182.678 32.505 252.515 86.536l-0.954-0.71 252.054-252.054c10.56-10.699 25.223-17.326 41.434-17.326s30.874 6.627 41.427 17.32l0.006 0.006c8.798 10.643 14.134 24.429 14.134 39.461s-5.337 28.817-14.219 39.565l0.084-0.105zM119.368 537.773c0 167.265 135.595 302.859 302.859 302.859s302.859-135.595 302.859-302.859c0-167.265-135.595-302.859-302.859-302.859v0 0c-167.265 0-302.859 135.595-302.859 302.859v0z" />
<glyph unicode="&#xe913;" glyph-name="speaker" horiz-adv-x="1051" d="M947.134 960c-0.034 0-0.075 0-0.116 0-54.819 0-99.573-43.092-102.237-97.25l-0.009-0.239c-165.323-67.426-357.105-106.877-558.012-107.611l-0.295-0.001h-45.744c-45.274-0.082-83.67-29.436-97.278-70.141l-0.21-0.725c-81.794-13.77-143.334-84.063-143.334-168.729s61.54-154.96 142.329-168.589l1.005-0.14c11.86-35.423 41.528-61.85 78.096-68.888l0.645-0.103 43.87-258.343c8.984-47.686 50.308-83.276 99.944-83.276 56.119 0 101.613 45.494 101.613 101.613 0 4.906-0.348 9.731-1.020 14.451l0.063-0.541-37.495 217.098c152.426-15.999 292.074-51.482 422.918-104.215l-10.468 3.727c-0.308-3.019-0.484-6.524-0.484-10.070 0-57.983 47.004-104.987 104.987-104.987s104.987 47.004 104.987 104.987c0 5.139-0.369 10.192-1.083 15.133l0.067-0.564v685.041c0 0.001 0 0.002 0 0.003 0 56.27-45.403 101.935-101.572 102.36h-0.040zM69.741 515.679c0.309 44.37 28.493 82.078 67.898 96.508l0.719 0.23v-193.476c-40.124 14.661-68.308 52.368-68.616 96.701v0.038zM206.6 379.196v273.342c0 18.844 15.276 34.121 34.121 34.121v0h45.744c5.644-0.108 12.299-0.169 18.968-0.169 35.041 0 69.687 1.696 103.858 5.009l-4.34-0.34v-350.957c-39.745 3-79.49 4.499-118.486 4.499h-45.744c-18.806 0.416-33.916 15.658-34.121 34.476v0.020zM398.951 41.737c0.306-1.669 0.481-3.589 0.481-5.55 0-16.26-12.034-29.708-27.682-31.926l-0.171-0.020h-4.874c-16.838 0.113-30.803 12.273-33.714 28.286l-0.032 0.211-41.245 244.845c22.497 0 45.369 0 68.617-1.875zM473.942 334.201v363.331c138.045 17.076 263.45 49.467 381.803 95.901l-10.598-3.663v-548.558c-108.034 42.968-233.716 75.374-364.444 91.484l-7.511 0.755zM981.255 172.596c0-18.844-15.276-34.121-34.121-34.121s-34.121 15.276-34.121 34.121v0 685.041c0 18.844 15.276 34.121 34.121 34.121s34.121-15.276 34.121-34.121v0z" />
<glyph unicode="&#xe914;" glyph-name="user" horiz-adv-x="1015" d="M676.115 413.605c79.946 54.579 131.743 145.27 131.743 248.058 0 165.356-134.048 299.404-299.404 299.404s-299.404-134.048-299.404-299.404c0-63.605 19.833-122.577 53.653-171.070l-0.644 0.975c20.816-30.642 46.038-56.489 75.087-77.342l0.91-0.621c-198.603-71.498-338.050-258.265-338.058-477.603v-0.001h1014.828c-0.318 219.426-139.955 406.154-335.179 476.493l-3.534 1.112z" />
<glyph unicode="&#xe915;" glyph-name="volume" horiz-adv-x="1166" d="M0 678.050h446.85v-544.759h-446.85v544.759zM839.96-64l-511.632 213.487v513.104l511.632 297.409v-1024zM951.856 697.927c-5.584 2.22-12.054 3.508-18.825 3.508-23.013 0-42.552-14.873-49.53-35.53l-0.108-0.368c-2.153-5.589-3.4-12.055-3.4-18.812 0-22.97 14.411-42.574 34.686-50.264l0.369-0.123c81.521-33.708 137.835-112.604 137.835-204.653s-56.315-170.945-136.37-204.115l-1.464-0.538c-20.202-8.031-34.223-27.413-34.223-50.070 0-29.288 23.43-53.104 52.569-53.727l0.058-0.001 18.404 3.681c125.786 46.645 213.805 165.613 213.805 305.139s-88.019 258.494-211.56 304.408l-2.245 0.731z" />
</font>
</defs>
</svg>
